<mxfile host="app.diagrams.net" agent="Mozilla/5.0 (Windows NT 10.0; Win64; x64) AppleWebKit/537.36 (KHTML, like Gecko) Chrome/131.0.0.0 Safari/537.36 Edg/131.0.0.0" version="26.0.2" pages="2">
  <diagram name="PÃ¡gina-1" id="QqUnpXxNjxalpsH4p9D8">
    <mxGraphModel dx="6811" dy="4683" grid="1" gridSize="10" guides="1" tooltips="1" connect="1" arrows="1" fold="1" page="1" pageScale="1" pageWidth="827" pageHeight="1169" math="0" shadow="0">
      <root>
        <mxCell id="0" />
        <mxCell id="1" parent="0" />
        <mxCell id="OFGFD8s86w9iyIirFIPD-10" value="Characters" style="swimlane;fontStyle=1;align=center;verticalAlign=top;childLayout=stackLayout;horizontal=1;startSize=26;horizontalStack=0;resizeParent=1;resizeParentMax=0;resizeLast=0;collapsible=1;marginBottom=0;whiteSpace=wrap;html=1;" parent="1" vertex="1">
          <mxGeometry x="-2010" y="29" width="200" height="86" as="geometry" />
        </mxCell>
        <mxCell id="OFGFD8s86w9iyIirFIPD-11" value="- name: string" style="text;strokeColor=none;fillColor=none;align=left;verticalAlign=top;spacingLeft=4;spacingRight=4;overflow=hidden;rotatable=0;points=[[0,0.5],[1,0.5]];portConstraint=eastwest;whiteSpace=wrap;html=1;" parent="OFGFD8s86w9iyIirFIPD-10" vertex="1">
          <mxGeometry y="26" width="200" height="26" as="geometry" />
        </mxCell>
        <mxCell id="OFGFD8s86w9iyIirFIPD-12" value="" style="line;strokeWidth=1;fillColor=none;align=left;verticalAlign=middle;spacingTop=-1;spacingLeft=3;spacingRight=3;rotatable=0;labelPosition=right;points=[];portConstraint=eastwest;strokeColor=inherit;" parent="OFGFD8s86w9iyIirFIPD-10" vertex="1">
          <mxGeometry y="52" width="200" height="8" as="geometry" />
        </mxCell>
        <mxCell id="OFGFD8s86w9iyIirFIPD-13" value="+ implementAnimation(): void" style="text;strokeColor=none;fillColor=none;align=left;verticalAlign=top;spacingLeft=4;spacingRight=4;overflow=hidden;rotatable=0;points=[[0,0.5],[1,0.5]];portConstraint=eastwest;whiteSpace=wrap;html=1;" parent="OFGFD8s86w9iyIirFIPD-10" vertex="1">
          <mxGeometry y="60" width="200" height="26" as="geometry" />
        </mxCell>
        <mxCell id="OFGFD8s86w9iyIirFIPD-17" value="Vehicle" style="swimlane;fontStyle=1;align=center;verticalAlign=top;childLayout=stackLayout;horizontal=1;startSize=26;horizontalStack=0;resizeParent=1;resizeParentMax=0;resizeLast=0;collapsible=1;marginBottom=0;whiteSpace=wrap;html=1;" parent="1" vertex="1">
          <mxGeometry x="-1710" y="-24" width="200" height="190" as="geometry" />
        </mxCell>
        <mxCell id="OFGFD8s86w9iyIirFIPD-18" value="- type: string" style="text;strokeColor=none;fillColor=none;align=left;verticalAlign=top;spacingLeft=4;spacingRight=4;overflow=hidden;rotatable=0;points=[[0,0.5],[1,0.5]];portConstraint=eastwest;whiteSpace=wrap;html=1;" parent="OFGFD8s86w9iyIirFIPD-17" vertex="1">
          <mxGeometry y="26" width="200" height="26" as="geometry" />
        </mxCell>
        <mxCell id="OFGFD8s86w9iyIirFIPD-19" value="- speed: int" style="text;strokeColor=none;fillColor=none;align=left;verticalAlign=top;spacingLeft=4;spacingRight=4;overflow=hidden;rotatable=0;points=[[0,0.5],[1,0.5]];portConstraint=eastwest;whiteSpace=wrap;html=1;" parent="OFGFD8s86w9iyIirFIPD-17" vertex="1">
          <mxGeometry y="52" width="200" height="26" as="geometry" />
        </mxCell>
        <mxCell id="OFGFD8s86w9iyIirFIPD-70" value="- startingPosition: int" style="text;strokeColor=none;fillColor=none;align=left;verticalAlign=top;spacingLeft=4;spacingRight=4;overflow=hidden;rotatable=0;points=[[0,0.5],[1,0.5]];portConstraint=eastwest;whiteSpace=wrap;html=1;" parent="OFGFD8s86w9iyIirFIPD-17" vertex="1">
          <mxGeometry y="78" width="200" height="26" as="geometry" />
        </mxCell>
        <mxCell id="OFGFD8s86w9iyIirFIPD-71" value="- finalPositiion: int" style="text;strokeColor=none;fillColor=none;align=left;verticalAlign=top;spacingLeft=4;spacingRight=4;overflow=hidden;rotatable=0;points=[[0,0.5],[1,0.5]];portConstraint=eastwest;whiteSpace=wrap;html=1;" parent="OFGFD8s86w9iyIirFIPD-17" vertex="1">
          <mxGeometry y="104" width="200" height="26" as="geometry" />
        </mxCell>
        <mxCell id="OFGFD8s86w9iyIirFIPD-73" value="- person: Character" style="text;strokeColor=none;fillColor=none;align=left;verticalAlign=top;spacingLeft=4;spacingRight=4;overflow=hidden;rotatable=0;points=[[0,0.5],[1,0.5]];portConstraint=eastwest;whiteSpace=wrap;html=1;" parent="OFGFD8s86w9iyIirFIPD-17" vertex="1">
          <mxGeometry y="130" width="200" height="26" as="geometry" />
        </mxCell>
        <mxCell id="OFGFD8s86w9iyIirFIPD-21" value="" style="line;strokeWidth=1;fillColor=none;align=left;verticalAlign=middle;spacingTop=-1;spacingLeft=3;spacingRight=3;rotatable=0;labelPosition=right;points=[];portConstraint=eastwest;strokeColor=inherit;" parent="OFGFD8s86w9iyIirFIPD-17" vertex="1">
          <mxGeometry y="156" width="200" height="8" as="geometry" />
        </mxCell>
        <mxCell id="OFGFD8s86w9iyIirFIPD-22" value="+ Move(): void" style="text;strokeColor=none;fillColor=none;align=left;verticalAlign=top;spacingLeft=4;spacingRight=4;overflow=hidden;rotatable=0;points=[[0,0.5],[1,0.5]];portConstraint=eastwest;whiteSpace=wrap;html=1;" parent="OFGFD8s86w9iyIirFIPD-17" vertex="1">
          <mxGeometry y="164" width="200" height="26" as="geometry" />
        </mxCell>
        <mxCell id="OFGFD8s86w9iyIirFIPD-24" value="Obstacles" style="swimlane;fontStyle=1;align=center;verticalAlign=top;childLayout=stackLayout;horizontal=1;startSize=26;horizontalStack=0;resizeParent=1;resizeParentMax=0;resizeLast=0;collapsible=1;marginBottom=0;whiteSpace=wrap;html=1;" parent="1" vertex="1">
          <mxGeometry x="-699" y="-400" width="200" height="112" as="geometry" />
        </mxCell>
        <mxCell id="OFGFD8s86w9iyIirFIPD-25" value="- type: string" style="text;strokeColor=none;fillColor=none;align=left;verticalAlign=top;spacingLeft=4;spacingRight=4;overflow=hidden;rotatable=0;points=[[0,0.5],[1,0.5]];portConstraint=eastwest;whiteSpace=wrap;html=1;" parent="OFGFD8s86w9iyIirFIPD-24" vertex="1">
          <mxGeometry y="26" width="200" height="26" as="geometry" />
        </mxCell>
        <mxCell id="OFGFD8s86w9iyIirFIPD-40" value="- effectTime: float" style="text;strokeColor=none;fillColor=none;align=left;verticalAlign=top;spacingLeft=4;spacingRight=4;overflow=hidden;rotatable=0;points=[[0,0.5],[1,0.5]];portConstraint=eastwest;whiteSpace=wrap;html=1;" parent="OFGFD8s86w9iyIirFIPD-24" vertex="1">
          <mxGeometry y="52" width="200" height="26" as="geometry" />
        </mxCell>
        <mxCell id="OFGFD8s86w9iyIirFIPD-28" value="" style="line;strokeWidth=1;fillColor=none;align=left;verticalAlign=middle;spacingTop=-1;spacingLeft=3;spacingRight=3;rotatable=0;labelPosition=right;points=[];portConstraint=eastwest;strokeColor=inherit;" parent="OFGFD8s86w9iyIirFIPD-24" vertex="1">
          <mxGeometry y="78" width="200" height="8" as="geometry" />
        </mxCell>
        <mxCell id="OFGFD8s86w9iyIirFIPD-29" value="+ Effect(): string" style="text;strokeColor=none;fillColor=none;align=left;verticalAlign=top;spacingLeft=4;spacingRight=4;overflow=hidden;rotatable=0;points=[[0,0.5],[1,0.5]];portConstraint=eastwest;whiteSpace=wrap;html=1;" parent="OFGFD8s86w9iyIirFIPD-24" vertex="1">
          <mxGeometry y="86" width="200" height="26" as="geometry" />
        </mxCell>
        <mxCell id="OFGFD8s86w9iyIirFIPD-36" value="ObstacleBoost" style="swimlane;fontStyle=1;align=center;verticalAlign=top;childLayout=stackLayout;horizontal=1;startSize=26;horizontalStack=0;resizeParent=1;resizeParentMax=0;resizeLast=0;collapsible=1;marginBottom=0;whiteSpace=wrap;html=1;" parent="1" vertex="1">
          <mxGeometry x="-1199" y="-132" width="200" height="138" as="geometry" />
        </mxCell>
        <mxCell id="OFGFD8s86w9iyIirFIPD-37" value="- type: string" style="text;strokeColor=none;fillColor=none;align=left;verticalAlign=top;spacingLeft=4;spacingRight=4;overflow=hidden;rotatable=0;points=[[0,0.5],[1,0.5]];portConstraint=eastwest;whiteSpace=wrap;html=1;" parent="OFGFD8s86w9iyIirFIPD-36" vertex="1">
          <mxGeometry y="26" width="200" height="26" as="geometry" />
        </mxCell>
        <mxCell id="OFGFD8s86w9iyIirFIPD-55" value="- boostAmount: float" style="text;strokeColor=none;fillColor=none;align=left;verticalAlign=top;spacingLeft=4;spacingRight=4;overflow=hidden;rotatable=0;points=[[0,0.5],[1,0.5]];portConstraint=eastwest;whiteSpace=wrap;html=1;" parent="OFGFD8s86w9iyIirFIPD-36" vertex="1">
          <mxGeometry y="52" width="200" height="26" as="geometry" />
        </mxCell>
        <mxCell id="CuVekwpNMo5QbRq_H-KT-49" value="- effectTime: float" style="text;strokeColor=none;fillColor=none;align=left;verticalAlign=top;spacingLeft=4;spacingRight=4;overflow=hidden;rotatable=0;points=[[0,0.5],[1,0.5]];portConstraint=eastwest;whiteSpace=wrap;html=1;" parent="OFGFD8s86w9iyIirFIPD-36" vertex="1">
          <mxGeometry y="78" width="200" height="26" as="geometry" />
        </mxCell>
        <mxCell id="OFGFD8s86w9iyIirFIPD-38" value="" style="line;strokeWidth=1;fillColor=none;align=left;verticalAlign=middle;spacingTop=-1;spacingLeft=3;spacingRight=3;rotatable=0;labelPosition=right;points=[];portConstraint=eastwest;strokeColor=inherit;" parent="OFGFD8s86w9iyIirFIPD-36" vertex="1">
          <mxGeometry y="104" width="200" height="8" as="geometry" />
        </mxCell>
        <mxCell id="OFGFD8s86w9iyIirFIPD-39" value="+ Effect(): string" style="text;strokeColor=none;fillColor=none;align=left;verticalAlign=top;spacingLeft=4;spacingRight=4;overflow=hidden;rotatable=0;points=[[0,0.5],[1,0.5]];portConstraint=eastwest;whiteSpace=wrap;html=1;" parent="OFGFD8s86w9iyIirFIPD-36" vertex="1">
          <mxGeometry y="112" width="200" height="26" as="geometry" />
        </mxCell>
        <mxCell id="OFGFD8s86w9iyIirFIPD-56" value="ObstacleAttack" style="swimlane;fontStyle=1;align=center;verticalAlign=top;childLayout=stackLayout;horizontal=1;startSize=26;horizontalStack=0;resizeParent=1;resizeParentMax=0;resizeLast=0;collapsible=1;marginBottom=0;whiteSpace=wrap;html=1;" parent="1" vertex="1">
          <mxGeometry x="-130" y="-108" width="200" height="190" as="geometry" />
        </mxCell>
        <mxCell id="OFGFD8s86w9iyIirFIPD-57" value="- type: string" style="text;strokeColor=none;fillColor=none;align=left;verticalAlign=top;spacingLeft=4;spacingRight=4;overflow=hidden;rotatable=0;points=[[0,0.5],[1,0.5]];portConstraint=eastwest;whiteSpace=wrap;html=1;" parent="OFGFD8s86w9iyIirFIPD-56" vertex="1">
          <mxGeometry y="26" width="200" height="26" as="geometry" />
        </mxCell>
        <mxCell id="OFGFD8s86w9iyIirFIPD-58" value="- velocity: float" style="text;strokeColor=none;fillColor=none;align=left;verticalAlign=top;spacingLeft=4;spacingRight=4;overflow=hidden;rotatable=0;points=[[0,0.5],[1,0.5]];portConstraint=eastwest;whiteSpace=wrap;html=1;" parent="OFGFD8s86w9iyIirFIPD-56" vertex="1">
          <mxGeometry y="52" width="200" height="26" as="geometry" />
        </mxCell>
        <mxCell id="OFGFD8s86w9iyIirFIPD-63" value="- direction: string" style="text;strokeColor=none;fillColor=none;align=left;verticalAlign=top;spacingLeft=4;spacingRight=4;overflow=hidden;rotatable=0;points=[[0,0.5],[1,0.5]];portConstraint=eastwest;whiteSpace=wrap;html=1;" parent="OFGFD8s86w9iyIirFIPD-56" vertex="1">
          <mxGeometry y="78" width="200" height="26" as="geometry" />
        </mxCell>
        <mxCell id="OFGFD8s86w9iyIirFIPD-127" value="- lifeTime: float:&amp;nbsp;" style="text;strokeColor=none;fillColor=none;align=left;verticalAlign=top;spacingLeft=4;spacingRight=4;overflow=hidden;rotatable=0;points=[[0,0.5],[1,0.5]];portConstraint=eastwest;whiteSpace=wrap;html=1;" parent="OFGFD8s86w9iyIirFIPD-56" vertex="1">
          <mxGeometry y="104" width="200" height="26" as="geometry" />
        </mxCell>
        <mxCell id="OFGFD8s86w9iyIirFIPD-128" value="- maxCrashes: int" style="text;strokeColor=none;fillColor=none;align=left;verticalAlign=top;spacingLeft=4;spacingRight=4;overflow=hidden;rotatable=0;points=[[0,0.5],[1,0.5]];portConstraint=eastwest;whiteSpace=wrap;html=1;" parent="OFGFD8s86w9iyIirFIPD-56" vertex="1">
          <mxGeometry y="130" width="200" height="26" as="geometry" />
        </mxCell>
        <mxCell id="OFGFD8s86w9iyIirFIPD-59" value="" style="line;strokeWidth=1;fillColor=none;align=left;verticalAlign=middle;spacingTop=-1;spacingLeft=3;spacingRight=3;rotatable=0;labelPosition=right;points=[];portConstraint=eastwest;strokeColor=inherit;" parent="OFGFD8s86w9iyIirFIPD-56" vertex="1">
          <mxGeometry y="156" width="200" height="8" as="geometry" />
        </mxCell>
        <mxCell id="OFGFD8s86w9iyIirFIPD-60" value="+ Effect(): string" style="text;strokeColor=none;fillColor=none;align=left;verticalAlign=top;spacingLeft=4;spacingRight=4;overflow=hidden;rotatable=0;points=[[0,0.5],[1,0.5]];portConstraint=eastwest;whiteSpace=wrap;html=1;" parent="OFGFD8s86w9iyIirFIPD-56" vertex="1">
          <mxGeometry y="164" width="200" height="26" as="geometry" />
        </mxCell>
        <mxCell id="OFGFD8s86w9iyIirFIPD-74" value="VehicleController" style="swimlane;fontStyle=1;align=center;verticalAlign=top;childLayout=stackLayout;horizontal=1;startSize=26;horizontalStack=0;resizeParent=1;resizeParentMax=0;resizeLast=0;collapsible=1;marginBottom=0;whiteSpace=wrap;html=1;" parent="1" vertex="1">
          <mxGeometry x="-1710" y="-275" width="200" height="164" as="geometry" />
        </mxCell>
        <mxCell id="OFGFD8s86w9iyIirFIPD-79" value="- person: Character" style="text;strokeColor=none;fillColor=none;align=left;verticalAlign=top;spacingLeft=4;spacingRight=4;overflow=hidden;rotatable=0;points=[[0,0.5],[1,0.5]];portConstraint=eastwest;whiteSpace=wrap;html=1;" parent="OFGFD8s86w9iyIirFIPD-74" vertex="1">
          <mxGeometry y="26" width="200" height="26" as="geometry" />
        </mxCell>
        <mxCell id="cp9rJf0xC1L9SVWynJWX-63" value="- type: str" style="text;strokeColor=none;fillColor=none;align=left;verticalAlign=top;spacingLeft=4;spacingRight=4;overflow=hidden;rotatable=0;points=[[0,0.5],[1,0.5]];portConstraint=eastwest;whiteSpace=wrap;html=1;" parent="OFGFD8s86w9iyIirFIPD-74" vertex="1">
          <mxGeometry y="52" width="200" height="26" as="geometry" />
        </mxCell>
        <mxCell id="cp9rJf0xC1L9SVWynJWX-64" value="- speed: float" style="text;strokeColor=none;fillColor=none;align=left;verticalAlign=top;spacingLeft=4;spacingRight=4;overflow=hidden;rotatable=0;points=[[0,0.5],[1,0.5]];portConstraint=eastwest;whiteSpace=wrap;html=1;" parent="OFGFD8s86w9iyIirFIPD-74" vertex="1">
          <mxGeometry y="78" width="200" height="26" as="geometry" />
        </mxCell>
        <mxCell id="cp9rJf0xC1L9SVWynJWX-65" value="- position: Vector2" style="text;strokeColor=none;fillColor=none;align=left;verticalAlign=top;spacingLeft=4;spacingRight=4;overflow=hidden;rotatable=0;points=[[0,0.5],[1,0.5]];portConstraint=eastwest;whiteSpace=wrap;html=1;" parent="OFGFD8s86w9iyIirFIPD-74" vertex="1">
          <mxGeometry y="104" width="200" height="26" as="geometry" />
        </mxCell>
        <mxCell id="OFGFD8s86w9iyIirFIPD-80" value="" style="line;strokeWidth=1;fillColor=none;align=left;verticalAlign=middle;spacingTop=-1;spacingLeft=3;spacingRight=3;rotatable=0;labelPosition=right;points=[];portConstraint=eastwest;strokeColor=inherit;" parent="OFGFD8s86w9iyIirFIPD-74" vertex="1">
          <mxGeometry y="130" width="200" height="8" as="geometry" />
        </mxCell>
        <mxCell id="OFGFD8s86w9iyIirFIPD-81" value="+ Move(): void" style="text;strokeColor=none;fillColor=none;align=left;verticalAlign=top;spacingLeft=4;spacingRight=4;overflow=hidden;rotatable=0;points=[[0,0.5],[1,0.5]];portConstraint=eastwest;whiteSpace=wrap;html=1;" parent="OFGFD8s86w9iyIirFIPD-74" vertex="1">
          <mxGeometry y="138" width="200" height="26" as="geometry" />
        </mxCell>
        <mxCell id="OFGFD8s86w9iyIirFIPD-82" value="AIAgent" style="swimlane;fontStyle=1;align=center;verticalAlign=top;childLayout=stackLayout;horizontal=1;startSize=26;horizontalStack=0;resizeParent=1;resizeParentMax=0;resizeLast=0;collapsible=1;marginBottom=0;whiteSpace=wrap;html=1;" parent="1" vertex="1">
          <mxGeometry x="-1540" y="-670" width="280" height="294" as="geometry" />
        </mxCell>
        <mxCell id="OFGFD8s86w9iyIirFIPD-85" value="- character: Character" style="text;strokeColor=none;fillColor=none;align=left;verticalAlign=top;spacingLeft=4;spacingRight=4;overflow=hidden;rotatable=0;points=[[0,0.5],[1,0.5]];portConstraint=eastwest;whiteSpace=wrap;html=1;" parent="OFGFD8s86w9iyIirFIPD-82" vertex="1">
          <mxGeometry y="26" width="280" height="26" as="geometry" />
        </mxCell>
        <mxCell id="PUqLCQDl67QB3bu-2gwk-4" value="- vehicle: Vehicle" style="text;strokeColor=none;fillColor=none;align=left;verticalAlign=top;spacingLeft=4;spacingRight=4;overflow=hidden;rotatable=0;points=[[0,0.5],[1,0.5]];portConstraint=eastwest;whiteSpace=wrap;html=1;" parent="OFGFD8s86w9iyIirFIPD-82" vertex="1">
          <mxGeometry y="52" width="280" height="26" as="geometry" />
        </mxCell>
        <mxCell id="PUqLCQDl67QB3bu-2gwk-1" value="- currentPosition: int" style="text;strokeColor=none;fillColor=none;align=left;verticalAlign=top;spacingLeft=4;spacingRight=4;overflow=hidden;rotatable=0;points=[[0,0.5],[1,0.5]];portConstraint=eastwest;whiteSpace=wrap;html=1;" parent="OFGFD8s86w9iyIirFIPD-82" vertex="1">
          <mxGeometry y="78" width="280" height="26" as="geometry" />
        </mxCell>
        <mxCell id="PUqLCQDl67QB3bu-2gwk-2" value="- behaviorState: string" style="text;strokeColor=none;fillColor=none;align=left;verticalAlign=top;spacingLeft=4;spacingRight=4;overflow=hidden;rotatable=0;points=[[0,0.5],[1,0.5]];portConstraint=eastwest;whiteSpace=wrap;html=1;" parent="OFGFD8s86w9iyIirFIPD-82" vertex="1">
          <mxGeometry y="104" width="280" height="26" as="geometry" />
        </mxCell>
        <mxCell id="PUqLCQDl67QB3bu-2gwk-3" value="- powerUps: Obstacle" style="text;strokeColor=none;fillColor=none;align=left;verticalAlign=top;spacingLeft=4;spacingRight=4;overflow=hidden;rotatable=0;points=[[0,0.5],[1,0.5]];portConstraint=eastwest;whiteSpace=wrap;html=1;" parent="OFGFD8s86w9iyIirFIPD-82" vertex="1">
          <mxGeometry y="130" width="280" height="26" as="geometry" />
        </mxCell>
        <mxCell id="OFGFD8s86w9iyIirFIPD-88" value="" style="line;strokeWidth=1;fillColor=none;align=left;verticalAlign=middle;spacingTop=-1;spacingLeft=3;spacingRight=3;rotatable=0;labelPosition=right;points=[];portConstraint=eastwest;strokeColor=inherit;" parent="OFGFD8s86w9iyIirFIPD-82" vertex="1">
          <mxGeometry y="156" width="280" height="8" as="geometry" />
        </mxCell>
        <mxCell id="OFGFD8s86w9iyIirFIPD-89" value="+ Move(): void" style="text;strokeColor=none;fillColor=none;align=left;verticalAlign=top;spacingLeft=4;spacingRight=4;overflow=hidden;rotatable=0;points=[[0,0.5],[1,0.5]];portConstraint=eastwest;whiteSpace=wrap;html=1;" parent="OFGFD8s86w9iyIirFIPD-82" vertex="1">
          <mxGeometry y="164" width="280" height="26" as="geometry" />
        </mxCell>
        <mxCell id="PUqLCQDl67QB3bu-2gwk-5" value="+ UsePowerUps(): void" style="text;strokeColor=none;fillColor=none;align=left;verticalAlign=top;spacingLeft=4;spacingRight=4;overflow=hidden;rotatable=0;points=[[0,0.5],[1,0.5]];portConstraint=eastwest;whiteSpace=wrap;html=1;" parent="OFGFD8s86w9iyIirFIPD-82" vertex="1">
          <mxGeometry y="190" width="280" height="26" as="geometry" />
        </mxCell>
        <mxCell id="PUqLCQDl67QB3bu-2gwk-6" value="+ UpdatePosition(newPosition: Position):&amp;nbsp;int" style="text;strokeColor=none;fillColor=none;align=left;verticalAlign=top;spacingLeft=4;spacingRight=4;overflow=hidden;rotatable=0;points=[[0,0.5],[1,0.5]];portConstraint=eastwest;whiteSpace=wrap;html=1;" parent="OFGFD8s86w9iyIirFIPD-82" vertex="1">
          <mxGeometry y="216" width="280" height="26" as="geometry" />
        </mxCell>
        <mxCell id="PUqLCQDl67QB3bu-2gwk-7" value="+ ReactToPlayer(playerPostion: Position): void" style="text;strokeColor=none;fillColor=none;align=left;verticalAlign=top;spacingLeft=4;spacingRight=4;overflow=hidden;rotatable=0;points=[[0,0.5],[1,0.5]];portConstraint=eastwest;whiteSpace=wrap;html=1;" parent="OFGFD8s86w9iyIirFIPD-82" vertex="1">
          <mxGeometry y="242" width="280" height="26" as="geometry" />
        </mxCell>
        <mxCell id="PUqLCQDl67QB3bu-2gwk-8" value="+ DecideBehavior(): string" style="text;strokeColor=none;fillColor=none;align=left;verticalAlign=top;spacingLeft=4;spacingRight=4;overflow=hidden;rotatable=0;points=[[0,0.5],[1,0.5]];portConstraint=eastwest;whiteSpace=wrap;html=1;" parent="OFGFD8s86w9iyIirFIPD-82" vertex="1">
          <mxGeometry y="268" width="280" height="26" as="geometry" />
        </mxCell>
        <mxCell id="OFGFD8s86w9iyIirFIPD-90" value="Events (USER)" style="swimlane;fontStyle=1;align=center;verticalAlign=top;childLayout=stackLayout;horizontal=1;startSize=26;horizontalStack=0;resizeParent=1;resizeParentMax=0;resizeLast=0;collapsible=1;marginBottom=0;whiteSpace=wrap;html=1;" parent="1" vertex="1">
          <mxGeometry x="-1980" y="-670" width="270" height="242" as="geometry" />
        </mxCell>
        <mxCell id="OFGFD8s86w9iyIirFIPD-91" value="- person: Character" style="text;strokeColor=none;fillColor=none;align=left;verticalAlign=top;spacingLeft=4;spacingRight=4;overflow=hidden;rotatable=0;points=[[0,0.5],[1,0.5]];portConstraint=eastwest;whiteSpace=wrap;html=1;" parent="OFGFD8s86w9iyIirFIPD-90" vertex="1">
          <mxGeometry y="26" width="270" height="26" as="geometry" />
        </mxCell>
        <mxCell id="cp9rJf0xC1L9SVWynJWX-67" value="- currentPosition: int" style="text;strokeColor=none;fillColor=none;align=left;verticalAlign=top;spacingLeft=4;spacingRight=4;overflow=hidden;rotatable=0;points=[[0,0.5],[1,0.5]];portConstraint=eastwest;whiteSpace=wrap;html=1;" parent="OFGFD8s86w9iyIirFIPD-90" vertex="1">
          <mxGeometry y="52" width="270" height="26" as="geometry" />
        </mxCell>
        <mxCell id="cp9rJf0xC1L9SVWynJWX-68" value="- lapsCompleted. int" style="text;strokeColor=none;fillColor=none;align=left;verticalAlign=top;spacingLeft=4;spacingRight=4;overflow=hidden;rotatable=0;points=[[0,0.5],[1,0.5]];portConstraint=eastwest;whiteSpace=wrap;html=1;" parent="OFGFD8s86w9iyIirFIPD-90" vertex="1">
          <mxGeometry y="78" width="270" height="26" as="geometry" />
        </mxCell>
        <mxCell id="cp9rJf0xC1L9SVWynJWX-69" value="- powerUps: Obstacle" style="text;strokeColor=none;fillColor=none;align=left;verticalAlign=top;spacingLeft=4;spacingRight=4;overflow=hidden;rotatable=0;points=[[0,0.5],[1,0.5]];portConstraint=eastwest;whiteSpace=wrap;html=1;" parent="OFGFD8s86w9iyIirFIPD-90" vertex="1">
          <mxGeometry y="104" width="270" height="26" as="geometry" />
        </mxCell>
        <mxCell id="OFGFD8s86w9iyIirFIPD-92" value="" style="line;strokeWidth=1;fillColor=none;align=left;verticalAlign=middle;spacingTop=-1;spacingLeft=3;spacingRight=3;rotatable=0;labelPosition=right;points=[];portConstraint=eastwest;strokeColor=inherit;" parent="OFGFD8s86w9iyIirFIPD-90" vertex="1">
          <mxGeometry y="130" width="270" height="8" as="geometry" />
        </mxCell>
        <mxCell id="OFGFD8s86w9iyIirFIPD-93" value="+ Move(): void" style="text;strokeColor=none;fillColor=none;align=left;verticalAlign=top;spacingLeft=4;spacingRight=4;overflow=hidden;rotatable=0;points=[[0,0.5],[1,0.5]];portConstraint=eastwest;whiteSpace=wrap;html=1;" parent="OFGFD8s86w9iyIirFIPD-90" vertex="1">
          <mxGeometry y="138" width="270" height="26" as="geometry" />
        </mxCell>
        <mxCell id="cp9rJf0xC1L9SVWynJWX-70" value="+ UsePowerUps(): void" style="text;strokeColor=none;fillColor=none;align=left;verticalAlign=top;spacingLeft=4;spacingRight=4;overflow=hidden;rotatable=0;points=[[0,0.5],[1,0.5]];portConstraint=eastwest;whiteSpace=wrap;html=1;" parent="OFGFD8s86w9iyIirFIPD-90" vertex="1">
          <mxGeometry y="164" width="270" height="26" as="geometry" />
        </mxCell>
        <mxCell id="cp9rJf0xC1L9SVWynJWX-71" value="+ UpdatePosition(newPosition: Position): int" style="text;strokeColor=none;fillColor=none;align=left;verticalAlign=top;spacingLeft=4;spacingRight=4;overflow=hidden;rotatable=0;points=[[0,0.5],[1,0.5]];portConstraint=eastwest;whiteSpace=wrap;html=1;" parent="OFGFD8s86w9iyIirFIPD-90" vertex="1">
          <mxGeometry y="190" width="270" height="26" as="geometry" />
        </mxCell>
        <mxCell id="cp9rJf0xC1L9SVWynJWX-72" value="+ RecordEvent(): void" style="text;strokeColor=none;fillColor=none;align=left;verticalAlign=top;spacingLeft=4;spacingRight=4;overflow=hidden;rotatable=0;points=[[0,0.5],[1,0.5]];portConstraint=eastwest;whiteSpace=wrap;html=1;" parent="OFGFD8s86w9iyIirFIPD-90" vertex="1">
          <mxGeometry y="216" width="270" height="26" as="geometry" />
        </mxCell>
        <mxCell id="OFGFD8s86w9iyIirFIPD-94" value="ObstacleScene" style="swimlane;fontStyle=1;align=center;verticalAlign=top;childLayout=stackLayout;horizontal=1;startSize=26;horizontalStack=0;resizeParent=1;resizeParentMax=0;resizeLast=0;collapsible=1;marginBottom=0;whiteSpace=wrap;html=1;" parent="1" vertex="1">
          <mxGeometry x="-699" y="-132" width="200" height="86" as="geometry" />
        </mxCell>
        <mxCell id="OFGFD8s86w9iyIirFIPD-95" value="- type: string" style="text;strokeColor=none;fillColor=none;align=left;verticalAlign=top;spacingLeft=4;spacingRight=4;overflow=hidden;rotatable=0;points=[[0,0.5],[1,0.5]];portConstraint=eastwest;whiteSpace=wrap;html=1;" parent="OFGFD8s86w9iyIirFIPD-94" vertex="1">
          <mxGeometry y="26" width="200" height="26" as="geometry" />
        </mxCell>
        <mxCell id="OFGFD8s86w9iyIirFIPD-97" value="" style="line;strokeWidth=1;fillColor=none;align=left;verticalAlign=middle;spacingTop=-1;spacingLeft=3;spacingRight=3;rotatable=0;labelPosition=right;points=[];portConstraint=eastwest;strokeColor=inherit;" parent="OFGFD8s86w9iyIirFIPD-94" vertex="1">
          <mxGeometry y="52" width="200" height="8" as="geometry" />
        </mxCell>
        <mxCell id="OFGFD8s86w9iyIirFIPD-98" value="+ Effect(): string" style="text;strokeColor=none;fillColor=none;align=left;verticalAlign=top;spacingLeft=4;spacingRight=4;overflow=hidden;rotatable=0;points=[[0,0.5],[1,0.5]];portConstraint=eastwest;whiteSpace=wrap;html=1;" parent="OFGFD8s86w9iyIirFIPD-94" vertex="1">
          <mxGeometry y="60" width="200" height="26" as="geometry" />
        </mxCell>
        <mxCell id="OFGFD8s86w9iyIirFIPD-99" value="" style="rounded=0;whiteSpace=wrap;html=1;fillColor=none;" parent="1" vertex="1">
          <mxGeometry x="-1230" y="-760" width="2770" height="1110" as="geometry" />
        </mxCell>
        <mxCell id="OFGFD8s86w9iyIirFIPD-100" value="" style="rounded=0;whiteSpace=wrap;html=1;fillColor=none;" parent="1" vertex="1">
          <mxGeometry x="-2080" y="-760" width="2180" height="1110" as="geometry" />
        </mxCell>
        <mxCell id="OFGFD8s86w9iyIirFIPD-101" value="" style="rounded=0;whiteSpace=wrap;html=1;fillColor=none;" parent="1" vertex="1">
          <mxGeometry x="-1340" y="-1720" width="1740" height="965" as="geometry" />
        </mxCell>
        <mxCell id="OFGFD8s86w9iyIirFIPD-102" value="ExitButton" style="swimlane;fontStyle=1;align=center;verticalAlign=top;childLayout=stackLayout;horizontal=1;startSize=26;horizontalStack=0;resizeParent=1;resizeParentMax=0;resizeLast=0;collapsible=1;marginBottom=0;whiteSpace=wrap;html=1;" parent="1" vertex="1">
          <mxGeometry x="140" y="-1120" width="200" height="76" as="geometry" />
        </mxCell>
        <mxCell id="OFGFD8s86w9iyIirFIPD-105" value="" style="line;strokeWidth=1;fillColor=none;align=left;verticalAlign=middle;spacingTop=-1;spacingLeft=3;spacingRight=3;rotatable=0;labelPosition=right;points=[];portConstraint=eastwest;strokeColor=inherit;" parent="OFGFD8s86w9iyIirFIPD-102" vertex="1">
          <mxGeometry y="26" width="200" height="24" as="geometry" />
        </mxCell>
        <mxCell id="OFGFD8s86w9iyIirFIPD-106" value="+ ExitGame(): void&lt;div&gt;&lt;br&gt;&lt;/div&gt;" style="text;strokeColor=none;fillColor=none;align=left;verticalAlign=top;spacingLeft=4;spacingRight=4;overflow=hidden;rotatable=0;points=[[0,0.5],[1,0.5]];portConstraint=eastwest;whiteSpace=wrap;html=1;" parent="OFGFD8s86w9iyIirFIPD-102" vertex="1">
          <mxGeometry y="50" width="200" height="26" as="geometry" />
        </mxCell>
        <mxCell id="OFGFD8s86w9iyIirFIPD-107" value="Mushrooms" style="swimlane;fontStyle=1;align=center;verticalAlign=top;childLayout=stackLayout;horizontal=1;startSize=26;horizontalStack=0;resizeParent=1;resizeParentMax=0;resizeLast=0;collapsible=1;marginBottom=0;whiteSpace=wrap;html=1;" parent="1" vertex="1">
          <mxGeometry x="-1199" y="80" width="200" height="112" as="geometry" />
        </mxCell>
        <mxCell id="OFGFD8s86w9iyIirFIPD-108" value="- type: string" style="text;strokeColor=none;fillColor=none;align=left;verticalAlign=top;spacingLeft=4;spacingRight=4;overflow=hidden;rotatable=0;points=[[0,0.5],[1,0.5]];portConstraint=eastwest;whiteSpace=wrap;html=1;" parent="OFGFD8s86w9iyIirFIPD-107" vertex="1">
          <mxGeometry y="26" width="200" height="26" as="geometry" />
        </mxCell>
        <mxCell id="OFGFD8s86w9iyIirFIPD-109" value="- boostAmount: float" style="text;strokeColor=none;fillColor=none;align=left;verticalAlign=top;spacingLeft=4;spacingRight=4;overflow=hidden;rotatable=0;points=[[0,0.5],[1,0.5]];portConstraint=eastwest;whiteSpace=wrap;html=1;" parent="OFGFD8s86w9iyIirFIPD-107" vertex="1">
          <mxGeometry y="52" width="200" height="26" as="geometry" />
        </mxCell>
        <mxCell id="OFGFD8s86w9iyIirFIPD-110" value="" style="line;strokeWidth=1;fillColor=none;align=left;verticalAlign=middle;spacingTop=-1;spacingLeft=3;spacingRight=3;rotatable=0;labelPosition=right;points=[];portConstraint=eastwest;strokeColor=inherit;" parent="OFGFD8s86w9iyIirFIPD-107" vertex="1">
          <mxGeometry y="78" width="200" height="8" as="geometry" />
        </mxCell>
        <mxCell id="OFGFD8s86w9iyIirFIPD-111" value="+ Effect(): string" style="text;strokeColor=none;fillColor=none;align=left;verticalAlign=top;spacingLeft=4;spacingRight=4;overflow=hidden;rotatable=0;points=[[0,0.5],[1,0.5]];portConstraint=eastwest;whiteSpace=wrap;html=1;" parent="OFGFD8s86w9iyIirFIPD-107" vertex="1">
          <mxGeometry y="86" width="200" height="26" as="geometry" />
        </mxCell>
        <mxCell id="OFGFD8s86w9iyIirFIPD-112" value="Wall" style="swimlane;fontStyle=1;align=center;verticalAlign=top;childLayout=stackLayout;horizontal=1;startSize=26;horizontalStack=0;resizeParent=1;resizeParentMax=0;resizeLast=0;collapsible=1;marginBottom=0;whiteSpace=wrap;html=1;" parent="1" vertex="1">
          <mxGeometry x="-929" y="83" width="200" height="86" as="geometry" />
        </mxCell>
        <mxCell id="OFGFD8s86w9iyIirFIPD-113" value="- type: string" style="text;strokeColor=none;fillColor=none;align=left;verticalAlign=top;spacingLeft=4;spacingRight=4;overflow=hidden;rotatable=0;points=[[0,0.5],[1,0.5]];portConstraint=eastwest;whiteSpace=wrap;html=1;" parent="OFGFD8s86w9iyIirFIPD-112" vertex="1">
          <mxGeometry y="26" width="200" height="26" as="geometry" />
        </mxCell>
        <mxCell id="OFGFD8s86w9iyIirFIPD-115" value="" style="line;strokeWidth=1;fillColor=none;align=left;verticalAlign=middle;spacingTop=-1;spacingLeft=3;spacingRight=3;rotatable=0;labelPosition=right;points=[];portConstraint=eastwest;strokeColor=inherit;" parent="OFGFD8s86w9iyIirFIPD-112" vertex="1">
          <mxGeometry y="52" width="200" height="8" as="geometry" />
        </mxCell>
        <mxCell id="OFGFD8s86w9iyIirFIPD-116" value="+ Effect(): string" style="text;strokeColor=none;fillColor=none;align=left;verticalAlign=top;spacingLeft=4;spacingRight=4;overflow=hidden;rotatable=0;points=[[0,0.5],[1,0.5]];portConstraint=eastwest;whiteSpace=wrap;html=1;" parent="OFGFD8s86w9iyIirFIPD-112" vertex="1">
          <mxGeometry y="60" width="200" height="26" as="geometry" />
        </mxCell>
        <mxCell id="OFGFD8s86w9iyIirFIPD-117" value="Fence" style="swimlane;fontStyle=1;align=center;verticalAlign=top;childLayout=stackLayout;horizontal=1;startSize=26;horizontalStack=0;resizeParent=1;resizeParentMax=0;resizeLast=0;collapsible=1;marginBottom=0;whiteSpace=wrap;html=1;" parent="1" vertex="1">
          <mxGeometry x="-459" y="80" width="200" height="86" as="geometry" />
        </mxCell>
        <mxCell id="OFGFD8s86w9iyIirFIPD-118" value="- type: string" style="text;strokeColor=none;fillColor=none;align=left;verticalAlign=top;spacingLeft=4;spacingRight=4;overflow=hidden;rotatable=0;points=[[0,0.5],[1,0.5]];portConstraint=eastwest;whiteSpace=wrap;html=1;" parent="OFGFD8s86w9iyIirFIPD-117" vertex="1">
          <mxGeometry y="26" width="200" height="26" as="geometry" />
        </mxCell>
        <mxCell id="OFGFD8s86w9iyIirFIPD-120" value="" style="line;strokeWidth=1;fillColor=none;align=left;verticalAlign=middle;spacingTop=-1;spacingLeft=3;spacingRight=3;rotatable=0;labelPosition=right;points=[];portConstraint=eastwest;strokeColor=inherit;" parent="OFGFD8s86w9iyIirFIPD-117" vertex="1">
          <mxGeometry y="52" width="200" height="8" as="geometry" />
        </mxCell>
        <mxCell id="OFGFD8s86w9iyIirFIPD-121" value="+ Effect(): string" style="text;strokeColor=none;fillColor=none;align=left;verticalAlign=top;spacingLeft=4;spacingRight=4;overflow=hidden;rotatable=0;points=[[0,0.5],[1,0.5]];portConstraint=eastwest;whiteSpace=wrap;html=1;" parent="OFGFD8s86w9iyIirFIPD-117" vertex="1">
          <mxGeometry y="60" width="200" height="26" as="geometry" />
        </mxCell>
        <mxCell id="OFGFD8s86w9iyIirFIPD-122" value="Monster" style="swimlane;fontStyle=1;align=center;verticalAlign=top;childLayout=stackLayout;horizontal=1;startSize=26;horizontalStack=0;resizeParent=1;resizeParentMax=0;resizeLast=0;collapsible=1;marginBottom=0;whiteSpace=wrap;html=1;" parent="1" vertex="1">
          <mxGeometry x="-699" y="83" width="200" height="112" as="geometry" />
        </mxCell>
        <mxCell id="OFGFD8s86w9iyIirFIPD-123" value="- type: string" style="text;strokeColor=none;fillColor=none;align=left;verticalAlign=top;spacingLeft=4;spacingRight=4;overflow=hidden;rotatable=0;points=[[0,0.5],[1,0.5]];portConstraint=eastwest;whiteSpace=wrap;html=1;" parent="OFGFD8s86w9iyIirFIPD-122" vertex="1">
          <mxGeometry y="26" width="200" height="26" as="geometry" />
        </mxCell>
        <mxCell id="OFGFD8s86w9iyIirFIPD-124" value="- boostAmount: float" style="text;strokeColor=none;fillColor=none;align=left;verticalAlign=top;spacingLeft=4;spacingRight=4;overflow=hidden;rotatable=0;points=[[0,0.5],[1,0.5]];portConstraint=eastwest;whiteSpace=wrap;html=1;" parent="OFGFD8s86w9iyIirFIPD-122" vertex="1">
          <mxGeometry y="52" width="200" height="26" as="geometry" />
        </mxCell>
        <mxCell id="OFGFD8s86w9iyIirFIPD-125" value="" style="line;strokeWidth=1;fillColor=none;align=left;verticalAlign=middle;spacingTop=-1;spacingLeft=3;spacingRight=3;rotatable=0;labelPosition=right;points=[];portConstraint=eastwest;strokeColor=inherit;" parent="OFGFD8s86w9iyIirFIPD-122" vertex="1">
          <mxGeometry y="78" width="200" height="8" as="geometry" />
        </mxCell>
        <mxCell id="OFGFD8s86w9iyIirFIPD-126" value="+ Effect(): string" style="text;strokeColor=none;fillColor=none;align=left;verticalAlign=top;spacingLeft=4;spacingRight=4;overflow=hidden;rotatable=0;points=[[0,0.5],[1,0.5]];portConstraint=eastwest;whiteSpace=wrap;html=1;" parent="OFGFD8s86w9iyIirFIPD-122" vertex="1">
          <mxGeometry y="86" width="200" height="26" as="geometry" />
        </mxCell>
        <mxCell id="OFGFD8s86w9iyIirFIPD-129" value="Gun" style="swimlane;fontStyle=1;align=center;verticalAlign=top;childLayout=stackLayout;horizontal=1;startSize=26;horizontalStack=0;resizeParent=1;resizeParentMax=0;resizeLast=0;collapsible=1;marginBottom=0;whiteSpace=wrap;html=1;" parent="1" vertex="1">
          <mxGeometry x="-130" y="150" width="200" height="112" as="geometry" />
        </mxCell>
        <mxCell id="OFGFD8s86w9iyIirFIPD-130" value="- type: string" style="text;strokeColor=none;fillColor=none;align=left;verticalAlign=top;spacingLeft=4;spacingRight=4;overflow=hidden;rotatable=0;points=[[0,0.5],[1,0.5]];portConstraint=eastwest;whiteSpace=wrap;html=1;" parent="OFGFD8s86w9iyIirFIPD-129" vertex="1">
          <mxGeometry y="26" width="200" height="26" as="geometry" />
        </mxCell>
        <mxCell id="OFGFD8s86w9iyIirFIPD-131" value="- boost: float" style="text;strokeColor=none;fillColor=none;align=left;verticalAlign=top;spacingLeft=4;spacingRight=4;overflow=hidden;rotatable=0;points=[[0,0.5],[1,0.5]];portConstraint=eastwest;whiteSpace=wrap;html=1;" parent="OFGFD8s86w9iyIirFIPD-129" vertex="1">
          <mxGeometry y="52" width="200" height="26" as="geometry" />
        </mxCell>
        <mxCell id="OFGFD8s86w9iyIirFIPD-132" value="" style="line;strokeWidth=1;fillColor=none;align=left;verticalAlign=middle;spacingTop=-1;spacingLeft=3;spacingRight=3;rotatable=0;labelPosition=right;points=[];portConstraint=eastwest;strokeColor=inherit;" parent="OFGFD8s86w9iyIirFIPD-129" vertex="1">
          <mxGeometry y="78" width="200" height="8" as="geometry" />
        </mxCell>
        <mxCell id="OFGFD8s86w9iyIirFIPD-133" value="+ Effect(): string" style="text;strokeColor=none;fillColor=none;align=left;verticalAlign=top;spacingLeft=4;spacingRight=4;overflow=hidden;rotatable=0;points=[[0,0.5],[1,0.5]];portConstraint=eastwest;whiteSpace=wrap;html=1;" parent="OFGFD8s86w9iyIirFIPD-129" vertex="1">
          <mxGeometry y="86" width="200" height="26" as="geometry" />
        </mxCell>
        <mxCell id="OFGFD8s86w9iyIirFIPD-138" value="PauseMenuManager" style="swimlane;fontStyle=1;align=center;verticalAlign=top;childLayout=stackLayout;horizontal=1;startSize=26;horizontalStack=0;resizeParent=1;resizeParentMax=0;resizeLast=0;collapsible=1;marginBottom=0;whiteSpace=wrap;html=1;" parent="1" vertex="1">
          <mxGeometry x="-330" y="-1120" width="200" height="80" as="geometry" />
        </mxCell>
        <mxCell id="OFGFD8s86w9iyIirFIPD-140" value="" style="line;strokeWidth=1;fillColor=none;align=left;verticalAlign=middle;spacingTop=-1;spacingLeft=3;spacingRight=3;rotatable=0;labelPosition=right;points=[];portConstraint=eastwest;strokeColor=inherit;" parent="OFGFD8s86w9iyIirFIPD-138" vertex="1">
          <mxGeometry y="26" width="200" height="8" as="geometry" />
        </mxCell>
        <mxCell id="OFGFD8s86w9iyIirFIPD-141" value="+ TogglePauseMenu(): void&lt;div&gt;+ GoToFinalScene&lt;/div&gt;" style="text;strokeColor=none;fillColor=none;align=left;verticalAlign=top;spacingLeft=4;spacingRight=4;overflow=hidden;rotatable=0;points=[[0,0.5],[1,0.5]];portConstraint=eastwest;whiteSpace=wrap;html=1;" parent="OFGFD8s86w9iyIirFIPD-138" vertex="1">
          <mxGeometry y="34" width="200" height="46" as="geometry" />
        </mxCell>
        <mxCell id="CuVekwpNMo5QbRq_H-KT-50" value="LapCounter" style="swimlane;fontStyle=1;align=center;verticalAlign=top;childLayout=stackLayout;horizontal=1;startSize=26;horizontalStack=0;resizeParent=1;resizeParentMax=0;resizeLast=0;collapsible=1;marginBottom=0;whiteSpace=wrap;html=1;" parent="1" vertex="1">
          <mxGeometry x="-480" y="-1580" width="350" height="150" as="geometry" />
        </mxCell>
        <mxCell id="CuVekwpNMo5QbRq_H-KT-51" value="- cooldownTime : float" style="text;strokeColor=none;fillColor=none;align=left;verticalAlign=top;spacingLeft=4;spacingRight=4;overflow=hidden;rotatable=0;points=[[0,0.5],[1,0.5]];portConstraint=eastwest;whiteSpace=wrap;html=1;" parent="CuVekwpNMo5QbRq_H-KT-50" vertex="1">
          <mxGeometry y="26" width="350" height="26" as="geometry" />
        </mxCell>
        <mxCell id="CuVekwpNMo5QbRq_H-KT-56" value="- lastLapTime : float" style="text;strokeColor=none;fillColor=none;align=left;verticalAlign=top;spacingLeft=4;spacingRight=4;overflow=hidden;rotatable=0;points=[[0,0.5],[1,0.5]];portConstraint=eastwest;whiteSpace=wrap;html=1;" parent="CuVekwpNMo5QbRq_H-KT-50" vertex="1">
          <mxGeometry y="52" width="350" height="26" as="geometry" />
        </mxCell>
        <mxCell id="CuVekwpNMo5QbRq_H-KT-52" value="" style="line;strokeWidth=1;fillColor=none;align=left;verticalAlign=middle;spacingTop=-1;spacingLeft=3;spacingRight=3;rotatable=0;labelPosition=right;points=[];portConstraint=eastwest;strokeColor=inherit;" parent="CuVekwpNMo5QbRq_H-KT-50" vertex="1">
          <mxGeometry y="78" width="350" height="8" as="geometry" />
        </mxCell>
        <mxCell id="CuVekwpNMo5QbRq_H-KT-53" value="+ OnTriggerEnter(other:Collider): void&lt;div&gt;+ DeterminePlayerPosition(playerCar : VehicleController) : void&lt;/div&gt;" style="text;strokeColor=none;fillColor=none;align=left;verticalAlign=top;spacingLeft=4;spacingRight=4;overflow=hidden;rotatable=0;points=[[0,0.5],[1,0.5]];portConstraint=eastwest;whiteSpace=wrap;html=1;" parent="CuVekwpNMo5QbRq_H-KT-50" vertex="1">
          <mxGeometry y="86" width="350" height="64" as="geometry" />
        </mxCell>
        <mxCell id="CuVekwpNMo5QbRq_H-KT-64" value="PodiumManager" style="swimlane;fontStyle=1;align=center;verticalAlign=top;childLayout=stackLayout;horizontal=1;startSize=26;horizontalStack=0;resizeParent=1;resizeParentMax=0;resizeLast=0;collapsible=1;marginBottom=0;whiteSpace=wrap;html=1;" parent="1" vertex="1">
          <mxGeometry x="-1230" y="-1630" width="320" height="130" as="geometry" />
        </mxCell>
        <mxCell id="CuVekwpNMo5QbRq_H-KT-65" value="- position1 : Transform&lt;div&gt;- position2 : Transform&lt;/div&gt;&lt;div&gt;- position3 : Transform&lt;/div&gt;" style="text;strokeColor=none;fillColor=none;align=left;verticalAlign=top;spacingLeft=4;spacingRight=4;overflow=hidden;rotatable=0;points=[[0,0.5],[1,0.5]];portConstraint=eastwest;whiteSpace=wrap;html=1;" parent="CuVekwpNMo5QbRq_H-KT-64" vertex="1">
          <mxGeometry y="26" width="320" height="54" as="geometry" />
        </mxCell>
        <mxCell id="CuVekwpNMo5QbRq_H-KT-67" value="" style="line;strokeWidth=1;fillColor=none;align=left;verticalAlign=middle;spacingTop=-1;spacingLeft=3;spacingRight=3;rotatable=0;labelPosition=right;points=[];portConstraint=eastwest;strokeColor=inherit;" parent="CuVekwpNMo5QbRq_H-KT-64" vertex="1">
          <mxGeometry y="80" width="320" height="8" as="geometry" />
        </mxCell>
        <mxCell id="CuVekwpNMo5QbRq_H-KT-68" value="+ SetupRacePodium(gameData : GameData): void&lt;div&gt;+ SetupTimeTrialResults(gameData : GameData): void&lt;/div&gt;" style="text;strokeColor=none;fillColor=none;align=left;verticalAlign=top;spacingLeft=4;spacingRight=4;overflow=hidden;rotatable=0;points=[[0,0.5],[1,0.5]];portConstraint=eastwest;whiteSpace=wrap;html=1;" parent="CuVekwpNMo5QbRq_H-KT-64" vertex="1">
          <mxGeometry y="88" width="320" height="42" as="geometry" />
        </mxCell>
        <mxCell id="CuVekwpNMo5QbRq_H-KT-87" value="CharacterMenuManager" style="swimlane;fontStyle=1;align=center;verticalAlign=top;childLayout=stackLayout;horizontal=1;startSize=26;horizontalStack=0;resizeParent=1;resizeParentMax=0;resizeLast=0;collapsible=1;marginBottom=0;whiteSpace=wrap;html=1;" parent="1" vertex="1">
          <mxGeometry x="-1234" y="-1440" width="270" height="100" as="geometry" />
        </mxCell>
        <mxCell id="CuVekwpNMo5QbRq_H-KT-92" value="&amp;nbsp;" style="text;strokeColor=none;fillColor=none;align=left;verticalAlign=top;spacingLeft=4;spacingRight=4;overflow=hidden;rotatable=0;points=[[0,0.5],[1,0.5]];portConstraint=eastwest;whiteSpace=wrap;html=1;" parent="CuVekwpNMo5QbRq_H-KT-87" vertex="1">
          <mxGeometry y="26" width="270" height="26" as="geometry" />
        </mxCell>
        <mxCell id="CuVekwpNMo5QbRq_H-KT-90" value="" style="line;strokeWidth=1;fillColor=none;align=left;verticalAlign=middle;spacingTop=-1;spacingLeft=3;spacingRight=3;rotatable=0;labelPosition=right;points=[];portConstraint=eastwest;strokeColor=inherit;" parent="CuVekwpNMo5QbRq_H-KT-87" vertex="1">
          <mxGeometry y="52" width="270" height="8" as="geometry" />
        </mxCell>
        <mxCell id="CuVekwpNMo5QbRq_H-KT-91" value="+ SelectCharacter(character : string): void&lt;div&gt;+ GoToVehicleMenu() : void&lt;/div&gt;" style="text;strokeColor=none;fillColor=none;align=left;verticalAlign=top;spacingLeft=4;spacingRight=4;overflow=hidden;rotatable=0;points=[[0,0.5],[1,0.5]];portConstraint=eastwest;whiteSpace=wrap;html=1;" parent="CuVekwpNMo5QbRq_H-KT-87" vertex="1">
          <mxGeometry y="60" width="270" height="40" as="geometry" />
        </mxCell>
        <mxCell id="_vIPs_J5UTxVljyEq_HG-17" style="edgeStyle=orthogonalEdgeStyle;rounded=0;orthogonalLoop=1;jettySize=auto;html=1;entryX=0;entryY=0.5;entryDx=0;entryDy=0;dashed=1;dashPattern=8 8;" edge="1" parent="1" source="CuVekwpNMo5QbRq_H-KT-95" target="cp9rJf0xC1L9SVWynJWX-55">
          <mxGeometry relative="1" as="geometry" />
        </mxCell>
        <mxCell id="CuVekwpNMo5QbRq_H-KT-95" value="CircuitMenuManager" style="swimlane;fontStyle=1;align=center;verticalAlign=top;childLayout=stackLayout;horizontal=1;startSize=26;horizontalStack=0;resizeParent=1;resizeParentMax=0;resizeLast=0;collapsible=1;marginBottom=0;whiteSpace=wrap;html=1;" parent="1" vertex="1">
          <mxGeometry x="-1230" y="-1254" width="240" height="110" as="geometry" />
        </mxCell>
        <mxCell id="CuVekwpNMo5QbRq_H-KT-101" value="&amp;nbsp;" style="text;strokeColor=none;fillColor=none;align=left;verticalAlign=top;spacingLeft=4;spacingRight=4;overflow=hidden;rotatable=0;points=[[0,0.5],[1,0.5]];portConstraint=eastwest;whiteSpace=wrap;html=1;" parent="CuVekwpNMo5QbRq_H-KT-95" vertex="1">
          <mxGeometry y="26" width="240" height="26" as="geometry" />
        </mxCell>
        <mxCell id="CuVekwpNMo5QbRq_H-KT-98" value="" style="line;strokeWidth=1;fillColor=none;align=left;verticalAlign=middle;spacingTop=-1;spacingLeft=3;spacingRight=3;rotatable=0;labelPosition=right;points=[];portConstraint=eastwest;strokeColor=inherit;" parent="CuVekwpNMo5QbRq_H-KT-95" vertex="1">
          <mxGeometry y="52" width="240" height="8" as="geometry" />
        </mxCell>
        <mxCell id="CuVekwpNMo5QbRq_H-KT-99" value="+ StartRace() : void&lt;div&gt;+ SelectCircuit(map : string) : void&lt;/div&gt;" style="text;strokeColor=none;fillColor=none;align=left;verticalAlign=top;spacingLeft=4;spacingRight=4;overflow=hidden;rotatable=0;points=[[0,0.5],[1,0.5]];portConstraint=eastwest;whiteSpace=wrap;html=1;" parent="CuVekwpNMo5QbRq_H-KT-95" vertex="1">
          <mxGeometry y="60" width="240" height="50" as="geometry" />
        </mxCell>
        <mxCell id="CuVekwpNMo5QbRq_H-KT-109" value="ObstacleFactory" style="swimlane;fontStyle=1;align=center;verticalAlign=top;childLayout=stackLayout;horizontal=1;startSize=26;horizontalStack=0;resizeParent=1;resizeParentMax=0;resizeLast=0;collapsible=1;marginBottom=0;whiteSpace=wrap;html=1;" parent="1" vertex="1">
          <mxGeometry x="581" y="-410" width="420" height="164" as="geometry" />
        </mxCell>
        <mxCell id="CuVekwpNMo5QbRq_H-KT-110" value="&amp;nbsp;" style="text;strokeColor=none;fillColor=none;align=left;verticalAlign=top;spacingLeft=4;spacingRight=4;overflow=hidden;rotatable=0;points=[[0,0.5],[1,0.5]];portConstraint=eastwest;whiteSpace=wrap;html=1;" parent="CuVekwpNMo5QbRq_H-KT-109" vertex="1">
          <mxGeometry y="26" width="420" height="26" as="geometry" />
        </mxCell>
        <mxCell id="CuVekwpNMo5QbRq_H-KT-112" value="" style="line;strokeWidth=1;fillColor=none;align=left;verticalAlign=middle;spacingTop=-1;spacingLeft=3;spacingRight=3;rotatable=0;labelPosition=right;points=[];portConstraint=eastwest;strokeColor=inherit;" parent="CuVekwpNMo5QbRq_H-KT-109" vertex="1">
          <mxGeometry y="52" width="420" height="8" as="geometry" />
        </mxCell>
        <mxCell id="CuVekwpNMo5QbRq_H-KT-113" value="+ CreateObstacle(type: string): Obstacle" style="text;strokeColor=none;fillColor=none;align=left;verticalAlign=top;spacingLeft=4;spacingRight=4;overflow=hidden;rotatable=0;points=[[0,0.5],[1,0.5]];portConstraint=eastwest;whiteSpace=wrap;html=1;" parent="CuVekwpNMo5QbRq_H-KT-109" vertex="1">
          <mxGeometry y="60" width="420" height="26" as="geometry" />
        </mxCell>
        <mxCell id="CuVekwpNMo5QbRq_H-KT-114" value="+ CreateBoostObstacle(boostAmount: float, duration: float): ObstacleBoost" style="text;strokeColor=none;fillColor=none;align=left;verticalAlign=top;spacingLeft=4;spacingRight=4;overflow=hidden;rotatable=0;points=[[0,0.5],[1,0.5]];portConstraint=eastwest;whiteSpace=wrap;html=1;" parent="CuVekwpNMo5QbRq_H-KT-109" vertex="1">
          <mxGeometry y="86" width="420" height="26" as="geometry" />
        </mxCell>
        <mxCell id="CuVekwpNMo5QbRq_H-KT-115" value="+ CreateSceneObstacle(): ObstacleScene " style="text;strokeColor=none;fillColor=none;align=left;verticalAlign=top;spacingLeft=4;spacingRight=4;overflow=hidden;rotatable=0;points=[[0,0.5],[1,0.5]];portConstraint=eastwest;whiteSpace=wrap;html=1;" parent="CuVekwpNMo5QbRq_H-KT-109" vertex="1">
          <mxGeometry y="112" width="420" height="26" as="geometry" />
        </mxCell>
        <mxCell id="CuVekwpNMo5QbRq_H-KT-116" value="+ CreateAttackObstacle(): ObstacleAttack" style="text;strokeColor=none;fillColor=none;align=left;verticalAlign=top;spacingLeft=4;spacingRight=4;overflow=hidden;rotatable=0;points=[[0,0.5],[1,0.5]];portConstraint=eastwest;whiteSpace=wrap;html=1;" parent="CuVekwpNMo5QbRq_H-KT-109" vertex="1">
          <mxGeometry y="138" width="420" height="26" as="geometry" />
        </mxCell>
        <mxCell id="6a2vFf1LVteAFRwm6jyj-12" value="ObstacleAttackFactory" style="swimlane;fontStyle=1;align=center;verticalAlign=top;childLayout=stackLayout;horizontal=1;startSize=26;horizontalStack=0;resizeParent=1;resizeParentMax=0;resizeLast=0;collapsible=1;marginBottom=0;whiteSpace=wrap;html=1;" parent="1" vertex="1">
          <mxGeometry x="1105.5" y="-130" width="420" height="164" as="geometry" />
        </mxCell>
        <mxCell id="6a2vFf1LVteAFRwm6jyj-13" value="&amp;nbsp;" style="text;strokeColor=none;fillColor=none;align=left;verticalAlign=top;spacingLeft=4;spacingRight=4;overflow=hidden;rotatable=0;points=[[0,0.5],[1,0.5]];portConstraint=eastwest;whiteSpace=wrap;html=1;" parent="6a2vFf1LVteAFRwm6jyj-12" vertex="1">
          <mxGeometry y="26" width="420" height="26" as="geometry" />
        </mxCell>
        <mxCell id="6a2vFf1LVteAFRwm6jyj-14" value="" style="line;strokeWidth=1;fillColor=none;align=left;verticalAlign=middle;spacingTop=-1;spacingLeft=3;spacingRight=3;rotatable=0;labelPosition=right;points=[];portConstraint=eastwest;strokeColor=inherit;" parent="6a2vFf1LVteAFRwm6jyj-12" vertex="1">
          <mxGeometry y="52" width="420" height="8" as="geometry" />
        </mxCell>
        <mxCell id="6a2vFf1LVteAFRwm6jyj-15" value="+ CreateObstacle(type: string): Obstacle" style="text;strokeColor=none;fillColor=none;align=left;verticalAlign=top;spacingLeft=4;spacingRight=4;overflow=hidden;rotatable=0;points=[[0,0.5],[1,0.5]];portConstraint=eastwest;whiteSpace=wrap;html=1;" parent="6a2vFf1LVteAFRwm6jyj-12" vertex="1">
          <mxGeometry y="60" width="420" height="26" as="geometry" />
        </mxCell>
        <mxCell id="6a2vFf1LVteAFRwm6jyj-16" value="+ CreateBoostObstacle(boostAmount: float, duration: float): ObstacleBoost" style="text;strokeColor=none;fillColor=none;align=left;verticalAlign=top;spacingLeft=4;spacingRight=4;overflow=hidden;rotatable=0;points=[[0,0.5],[1,0.5]];portConstraint=eastwest;whiteSpace=wrap;html=1;" parent="6a2vFf1LVteAFRwm6jyj-12" vertex="1">
          <mxGeometry y="86" width="420" height="26" as="geometry" />
        </mxCell>
        <mxCell id="6a2vFf1LVteAFRwm6jyj-17" value="+ CreateSceneObstacle(): ObstacleScene " style="text;strokeColor=none;fillColor=none;align=left;verticalAlign=top;spacingLeft=4;spacingRight=4;overflow=hidden;rotatable=0;points=[[0,0.5],[1,0.5]];portConstraint=eastwest;whiteSpace=wrap;html=1;" parent="6a2vFf1LVteAFRwm6jyj-12" vertex="1">
          <mxGeometry y="112" width="420" height="26" as="geometry" />
        </mxCell>
        <mxCell id="6a2vFf1LVteAFRwm6jyj-18" value="+ CreateAttackObstacle(): ObstacleAttack" style="text;strokeColor=none;fillColor=none;align=left;verticalAlign=top;spacingLeft=4;spacingRight=4;overflow=hidden;rotatable=0;points=[[0,0.5],[1,0.5]];portConstraint=eastwest;whiteSpace=wrap;html=1;" parent="6a2vFf1LVteAFRwm6jyj-12" vertex="1">
          <mxGeometry y="138" width="420" height="26" as="geometry" />
        </mxCell>
        <mxCell id="6a2vFf1LVteAFRwm6jyj-19" value="ObstacleSceneFactory" style="swimlane;fontStyle=1;align=center;verticalAlign=top;childLayout=stackLayout;horizontal=1;startSize=26;horizontalStack=0;resizeParent=1;resizeParentMax=0;resizeLast=0;collapsible=1;marginBottom=0;whiteSpace=wrap;html=1;" parent="1" vertex="1">
          <mxGeometry x="600" y="-128" width="420" height="164" as="geometry" />
        </mxCell>
        <mxCell id="6a2vFf1LVteAFRwm6jyj-20" value="&amp;nbsp;" style="text;strokeColor=none;fillColor=none;align=left;verticalAlign=top;spacingLeft=4;spacingRight=4;overflow=hidden;rotatable=0;points=[[0,0.5],[1,0.5]];portConstraint=eastwest;whiteSpace=wrap;html=1;" parent="6a2vFf1LVteAFRwm6jyj-19" vertex="1">
          <mxGeometry y="26" width="420" height="26" as="geometry" />
        </mxCell>
        <mxCell id="6a2vFf1LVteAFRwm6jyj-21" value="" style="line;strokeWidth=1;fillColor=none;align=left;verticalAlign=middle;spacingTop=-1;spacingLeft=3;spacingRight=3;rotatable=0;labelPosition=right;points=[];portConstraint=eastwest;strokeColor=inherit;" parent="6a2vFf1LVteAFRwm6jyj-19" vertex="1">
          <mxGeometry y="52" width="420" height="8" as="geometry" />
        </mxCell>
        <mxCell id="6a2vFf1LVteAFRwm6jyj-22" value="+ CreateObstacle(type: string): Obstacle" style="text;strokeColor=none;fillColor=none;align=left;verticalAlign=top;spacingLeft=4;spacingRight=4;overflow=hidden;rotatable=0;points=[[0,0.5],[1,0.5]];portConstraint=eastwest;whiteSpace=wrap;html=1;" parent="6a2vFf1LVteAFRwm6jyj-19" vertex="1">
          <mxGeometry y="60" width="420" height="26" as="geometry" />
        </mxCell>
        <mxCell id="6a2vFf1LVteAFRwm6jyj-23" value="+ CreateBoostObstacle(boostAmount: float, duration: float): ObstacleBoost" style="text;strokeColor=none;fillColor=none;align=left;verticalAlign=top;spacingLeft=4;spacingRight=4;overflow=hidden;rotatable=0;points=[[0,0.5],[1,0.5]];portConstraint=eastwest;whiteSpace=wrap;html=1;" parent="6a2vFf1LVteAFRwm6jyj-19" vertex="1">
          <mxGeometry y="86" width="420" height="26" as="geometry" />
        </mxCell>
        <mxCell id="6a2vFf1LVteAFRwm6jyj-24" value="+ CreateSceneObstacle(): ObstacleScene " style="text;strokeColor=none;fillColor=none;align=left;verticalAlign=top;spacingLeft=4;spacingRight=4;overflow=hidden;rotatable=0;points=[[0,0.5],[1,0.5]];portConstraint=eastwest;whiteSpace=wrap;html=1;" parent="6a2vFf1LVteAFRwm6jyj-19" vertex="1">
          <mxGeometry y="112" width="420" height="26" as="geometry" />
        </mxCell>
        <mxCell id="6a2vFf1LVteAFRwm6jyj-25" value="+ CreateAttackObstacle(): ObstacleAttack" style="text;strokeColor=none;fillColor=none;align=left;verticalAlign=top;spacingLeft=4;spacingRight=4;overflow=hidden;rotatable=0;points=[[0,0.5],[1,0.5]];portConstraint=eastwest;whiteSpace=wrap;html=1;" parent="6a2vFf1LVteAFRwm6jyj-19" vertex="1">
          <mxGeometry y="138" width="420" height="26" as="geometry" />
        </mxCell>
        <mxCell id="6a2vFf1LVteAFRwm6jyj-26" value="ObstacleBoostFactory" style="swimlane;fontStyle=1;align=center;verticalAlign=top;childLayout=stackLayout;horizontal=1;startSize=26;horizontalStack=0;resizeParent=1;resizeParentMax=0;resizeLast=0;collapsible=1;marginBottom=0;whiteSpace=wrap;html=1;" parent="1" vertex="1">
          <mxGeometry x="120" y="-130" width="420" height="166" as="geometry" />
        </mxCell>
        <mxCell id="6a2vFf1LVteAFRwm6jyj-27" value="&amp;nbsp;" style="text;strokeColor=none;fillColor=none;align=left;verticalAlign=top;spacingLeft=4;spacingRight=4;overflow=hidden;rotatable=0;points=[[0,0.5],[1,0.5]];portConstraint=eastwest;whiteSpace=wrap;html=1;" parent="6a2vFf1LVteAFRwm6jyj-26" vertex="1">
          <mxGeometry y="26" width="420" height="26" as="geometry" />
        </mxCell>
        <mxCell id="6a2vFf1LVteAFRwm6jyj-28" value="" style="line;strokeWidth=1;fillColor=none;align=left;verticalAlign=middle;spacingTop=-1;spacingLeft=3;spacingRight=3;rotatable=0;labelPosition=right;points=[];portConstraint=eastwest;strokeColor=inherit;" parent="6a2vFf1LVteAFRwm6jyj-26" vertex="1">
          <mxGeometry y="52" width="420" height="8" as="geometry" />
        </mxCell>
        <mxCell id="6a2vFf1LVteAFRwm6jyj-29" value="+ CreateObstacle(type: string): Obstacle" style="text;strokeColor=none;fillColor=none;align=left;verticalAlign=top;spacingLeft=4;spacingRight=4;overflow=hidden;rotatable=0;points=[[0,0.5],[1,0.5]];portConstraint=eastwest;whiteSpace=wrap;html=1;" parent="6a2vFf1LVteAFRwm6jyj-26" vertex="1">
          <mxGeometry y="60" width="420" height="26" as="geometry" />
        </mxCell>
        <mxCell id="6a2vFf1LVteAFRwm6jyj-30" value="+ CreateBoostObstacle(boostAmount: float, duration: float): ObstacleBoost" style="text;strokeColor=none;fillColor=none;align=left;verticalAlign=top;spacingLeft=4;spacingRight=4;overflow=hidden;rotatable=0;points=[[0,0.5],[1,0.5]];portConstraint=eastwest;whiteSpace=wrap;html=1;" parent="6a2vFf1LVteAFRwm6jyj-26" vertex="1">
          <mxGeometry y="86" width="420" height="26" as="geometry" />
        </mxCell>
        <mxCell id="6a2vFf1LVteAFRwm6jyj-31" value="+ CreateSceneObstacle(): ObstacleScene " style="text;strokeColor=none;fillColor=none;align=left;verticalAlign=top;spacingLeft=4;spacingRight=4;overflow=hidden;rotatable=0;points=[[0,0.5],[1,0.5]];portConstraint=eastwest;whiteSpace=wrap;html=1;" parent="6a2vFf1LVteAFRwm6jyj-26" vertex="1">
          <mxGeometry y="112" width="420" height="28" as="geometry" />
        </mxCell>
        <mxCell id="6a2vFf1LVteAFRwm6jyj-32" value="+ CreateAttackObstacle(): ObstacleAttack" style="text;strokeColor=none;fillColor=none;align=left;verticalAlign=top;spacingLeft=4;spacingRight=4;overflow=hidden;rotatable=0;points=[[0,0.5],[1,0.5]];portConstraint=eastwest;whiteSpace=wrap;html=1;" parent="6a2vFf1LVteAFRwm6jyj-26" vertex="1">
          <mxGeometry y="140" width="420" height="26" as="geometry" />
        </mxCell>
        <mxCell id="6a2vFf1LVteAFRwm6jyj-36" value="" style="endArrow=block;endSize=16;endFill=0;html=1;rounded=0;exitX=0.5;exitY=0;exitDx=0;exitDy=0;entryX=0.5;entryY=1;entryDx=0;entryDy=0;" parent="1" source="OFGFD8s86w9iyIirFIPD-107" target="OFGFD8s86w9iyIirFIPD-36" edge="1">
          <mxGeometry width="160" relative="1" as="geometry">
            <mxPoint x="-1030" y="110" as="sourcePoint" />
            <mxPoint x="-870" y="110" as="targetPoint" />
          </mxGeometry>
        </mxCell>
        <mxCell id="6a2vFf1LVteAFRwm6jyj-37" value="" style="endArrow=block;endSize=16;endFill=0;html=1;rounded=0;exitX=0.5;exitY=0;exitDx=0;exitDy=0;entryX=0.544;entryY=1.138;entryDx=0;entryDy=0;entryPerimeter=0;" parent="1" source="OFGFD8s86w9iyIirFIPD-112" target="OFGFD8s86w9iyIirFIPD-98" edge="1">
          <mxGeometry width="160" relative="1" as="geometry">
            <mxPoint x="-1089" y="90" as="sourcePoint" />
            <mxPoint x="-880" y="-30" as="targetPoint" />
            <Array as="points">
              <mxPoint x="-830" y="10" />
              <mxPoint x="-590" y="10" />
            </Array>
          </mxGeometry>
        </mxCell>
        <mxCell id="6a2vFf1LVteAFRwm6jyj-38" value="" style="endArrow=block;endSize=16;endFill=0;html=1;rounded=0;exitX=0.546;exitY=0;exitDx=0;exitDy=0;entryX=0.541;entryY=0.966;entryDx=0;entryDy=0;entryPerimeter=0;exitPerimeter=0;" parent="1" source="OFGFD8s86w9iyIirFIPD-122" target="OFGFD8s86w9iyIirFIPD-98" edge="1">
          <mxGeometry width="160" relative="1" as="geometry">
            <mxPoint x="-1079" y="100" as="sourcePoint" />
            <mxPoint x="-1079" y="26" as="targetPoint" />
          </mxGeometry>
        </mxCell>
        <mxCell id="6a2vFf1LVteAFRwm6jyj-40" value="" style="endArrow=block;endSize=16;endFill=0;html=1;rounded=0;exitX=0.5;exitY=0;exitDx=0;exitDy=0;entryX=0.537;entryY=1.002;entryDx=0;entryDy=0;entryPerimeter=0;" parent="1" source="OFGFD8s86w9iyIirFIPD-117" target="OFGFD8s86w9iyIirFIPD-98" edge="1">
          <mxGeometry width="160" relative="1" as="geometry">
            <mxPoint x="-350.34000000000003" y="28" as="sourcePoint" />
            <mxPoint x="-350.34000000000003" y="-46" as="targetPoint" />
            <Array as="points">
              <mxPoint x="-359" y="10" />
              <mxPoint x="-592" y="10" />
            </Array>
          </mxGeometry>
        </mxCell>
        <mxCell id="6a2vFf1LVteAFRwm6jyj-41" value="" style="endArrow=block;endSize=16;endFill=0;html=1;rounded=0;exitX=0.5;exitY=0;exitDx=0;exitDy=0;entryX=0.497;entryY=0.927;entryDx=0;entryDy=0;entryPerimeter=0;" parent="1" source="OFGFD8s86w9iyIirFIPD-129" target="OFGFD8s86w9iyIirFIPD-60" edge="1">
          <mxGeometry width="160" relative="1" as="geometry">
            <mxPoint x="-349" y="90" as="sourcePoint" />
            <mxPoint x="-562" y="-35" as="targetPoint" />
          </mxGeometry>
        </mxCell>
        <mxCell id="6a2vFf1LVteAFRwm6jyj-43" value="" style="endArrow=block;endSize=16;endFill=0;html=1;rounded=0;exitX=0.522;exitY=0.009;exitDx=0;exitDy=0;exitPerimeter=0;entryX=0.519;entryY=1.084;entryDx=0;entryDy=0;entryPerimeter=0;" parent="1" source="6a2vFf1LVteAFRwm6jyj-26" target="CuVekwpNMo5QbRq_H-KT-116" edge="1">
          <mxGeometry width="160" relative="1" as="geometry">
            <mxPoint x="270" y="-82" as="sourcePoint" />
            <mxPoint x="740" y="-230" as="targetPoint" />
            <Array as="points">
              <mxPoint x="339" y="-210" />
              <mxPoint x="800" y="-210" />
            </Array>
          </mxGeometry>
        </mxCell>
        <mxCell id="6a2vFf1LVteAFRwm6jyj-44" value="" style="endArrow=block;endSize=16;endFill=0;html=1;rounded=0;exitX=0.472;exitY=0.011;exitDx=0;exitDy=0;exitPerimeter=0;entryX=0.515;entryY=1.084;entryDx=0;entryDy=0;entryPerimeter=0;" parent="1" source="6a2vFf1LVteAFRwm6jyj-19" target="CuVekwpNMo5QbRq_H-KT-116" edge="1">
          <mxGeometry width="160" relative="1" as="geometry">
            <mxPoint x="519" y="-80" as="sourcePoint" />
            <mxPoint x="810" y="-200" as="targetPoint" />
          </mxGeometry>
        </mxCell>
        <mxCell id="6a2vFf1LVteAFRwm6jyj-45" value="" style="endArrow=block;endSize=16;endFill=0;html=1;rounded=0;exitX=0.546;exitY=-0.011;exitDx=0;exitDy=0;exitPerimeter=0;entryX=0.519;entryY=1.048;entryDx=0;entryDy=0;entryPerimeter=0;" parent="1" source="6a2vFf1LVteAFRwm6jyj-12" target="CuVekwpNMo5QbRq_H-KT-116" edge="1">
          <mxGeometry width="160" relative="1" as="geometry">
            <mxPoint x="740" y="-85" as="sourcePoint" />
            <mxPoint x="930" y="-190" as="targetPoint" />
            <Array as="points">
              <mxPoint x="1335" y="-210" />
              <mxPoint x="799" y="-210" />
            </Array>
          </mxGeometry>
        </mxCell>
        <mxCell id="6a2vFf1LVteAFRwm6jyj-46" value="" style="endArrow=block;endSize=16;endFill=0;html=1;rounded=0;exitX=0.5;exitY=0;exitDx=0;exitDy=0;entryX=0.49;entryY=1.043;entryDx=0;entryDy=0;entryPerimeter=0;" parent="1" source="OFGFD8s86w9iyIirFIPD-36" target="OFGFD8s86w9iyIirFIPD-29" edge="1">
          <mxGeometry width="160" relative="1" as="geometry">
            <mxPoint x="-1120" y="-162" as="sourcePoint" />
            <mxPoint x="-881" y="-287" as="targetPoint" />
            <Array as="points">
              <mxPoint x="-1100" y="-230" />
              <mxPoint x="-599" y="-230" />
            </Array>
          </mxGeometry>
        </mxCell>
        <mxCell id="6a2vFf1LVteAFRwm6jyj-47" value="" style="endArrow=block;endSize=16;endFill=0;html=1;rounded=0;exitX=0.5;exitY=0;exitDx=0;exitDy=0;entryX=0.495;entryY=0.976;entryDx=0;entryDy=0;entryPerimeter=0;" parent="1" source="OFGFD8s86w9iyIirFIPD-94" target="OFGFD8s86w9iyIirFIPD-29" edge="1">
          <mxGeometry width="160" relative="1" as="geometry">
            <mxPoint x="-871" y="-160" as="sourcePoint" />
            <mxPoint x="-871" y="-285" as="targetPoint" />
          </mxGeometry>
        </mxCell>
        <mxCell id="6a2vFf1LVteAFRwm6jyj-48" value="" style="endArrow=block;endSize=16;endFill=0;html=1;rounded=0;exitX=0.5;exitY=0;exitDx=0;exitDy=0;entryX=0.501;entryY=1.118;entryDx=0;entryDy=0;entryPerimeter=0;" parent="1" source="OFGFD8s86w9iyIirFIPD-56" target="OFGFD8s86w9iyIirFIPD-29" edge="1">
          <mxGeometry width="160" relative="1" as="geometry">
            <mxPoint x="-650" y="-165" as="sourcePoint" />
            <mxPoint x="-863" y="-290" as="targetPoint" />
            <Array as="points">
              <mxPoint x="-30" y="-230" />
              <mxPoint x="-599" y="-230" />
            </Array>
          </mxGeometry>
        </mxCell>
        <mxCell id="6a2vFf1LVteAFRwm6jyj-49" value="" style="endArrow=diamondThin;endFill=0;endSize=24;html=1;rounded=0;exitX=0.507;exitY=1.086;exitDx=0;exitDy=0;exitPerimeter=0;entryX=0.5;entryY=0;entryDx=0;entryDy=0;" parent="1" source="OFGFD8s86w9iyIirFIPD-81" target="OFGFD8s86w9iyIirFIPD-17" edge="1">
          <mxGeometry width="160" relative="1" as="geometry">
            <mxPoint x="-1800" y="39" as="sourcePoint" />
            <mxPoint x="-1614" y="-124" as="targetPoint" />
          </mxGeometry>
        </mxCell>
        <mxCell id="6a2vFf1LVteAFRwm6jyj-10" value="" style="endArrow=diamondThin;endFill=0;endSize=24;html=1;rounded=0;exitX=0;exitY=0.5;exitDx=0;exitDy=0;entryX=1;entryY=0.5;entryDx=0;entryDy=0;" parent="1" source="OFGFD8s86w9iyIirFIPD-70" target="OFGFD8s86w9iyIirFIPD-11" edge="1">
          <mxGeometry width="160" relative="1" as="geometry">
            <mxPoint x="-1219" y="-214" as="sourcePoint" />
            <mxPoint x="-1059" y="-214" as="targetPoint" />
          </mxGeometry>
        </mxCell>
        <mxCell id="6a2vFf1LVteAFRwm6jyj-50" value="" style="endArrow=open;endFill=1;endSize=12;html=1;rounded=0;exitX=0.502;exitY=1.038;exitDx=0;exitDy=0;exitPerimeter=0;entryX=0.5;entryY=0;entryDx=0;entryDy=0;" parent="1" source="cp9rJf0xC1L9SVWynJWX-72" target="OFGFD8s86w9iyIirFIPD-74" edge="1">
          <mxGeometry width="160" relative="1" as="geometry">
            <mxPoint x="-1490" y="-540" as="sourcePoint" />
            <mxPoint x="-1750" y="-550" as="targetPoint" />
            <Array as="points">
              <mxPoint x="-1844" y="-350" />
              <mxPoint x="-1610" y="-350" />
            </Array>
          </mxGeometry>
        </mxCell>
        <mxCell id="6a2vFf1LVteAFRwm6jyj-51" value="" style="endArrow=open;endFill=1;endSize=12;html=1;rounded=0;exitX=0.492;exitY=1.031;exitDx=0;exitDy=0;exitPerimeter=0;entryX=0.5;entryY=0;entryDx=0;entryDy=0;" parent="1" source="PUqLCQDl67QB3bu-2gwk-8" target="OFGFD8s86w9iyIirFIPD-74" edge="1">
          <mxGeometry width="160" relative="1" as="geometry">
            <mxPoint x="-1569" y="-520" as="sourcePoint" />
            <mxPoint x="-1360" y="-520" as="targetPoint" />
            <Array as="points">
              <mxPoint x="-1402" y="-350" />
              <mxPoint x="-1610" y="-350" />
            </Array>
          </mxGeometry>
        </mxCell>
        <mxCell id="pTUxfAZWy1KwxuOITRB0-1" value="Use" style="endArrow=open;endSize=12;dashed=1;html=1;rounded=0;exitX=1;exitY=0.5;exitDx=0;exitDy=0;entryX=0;entryY=0.5;entryDx=0;entryDy=0;" parent="1" source="OFGFD8s86w9iyIirFIPD-70" target="OFGFD8s86w9iyIirFIPD-40" edge="1">
          <mxGeometry width="160" relative="1" as="geometry">
            <mxPoint x="-1310" y="67" as="sourcePoint" />
            <mxPoint x="-580" y="-680" as="targetPoint" />
            <Array as="points">
              <mxPoint x="-1260" y="67" />
              <mxPoint x="-1260" y="-270" />
              <mxPoint x="-890" y="-270" />
              <mxPoint x="-890" y="-335" />
            </Array>
          </mxGeometry>
        </mxCell>
        <mxCell id="cp9rJf0xC1L9SVWynJWX-9" value="MenuManager" style="swimlane;fontStyle=1;align=center;verticalAlign=top;childLayout=stackLayout;horizontal=1;startSize=26;horizontalStack=0;resizeParent=1;resizeParentMax=0;resizeLast=0;collapsible=1;marginBottom=0;whiteSpace=wrap;html=1;" parent="1" vertex="1">
          <mxGeometry x="-100" y="-1130" width="200" height="112" as="geometry" />
        </mxCell>
        <mxCell id="cp9rJf0xC1L9SVWynJWX-11" value="" style="line;strokeWidth=1;fillColor=none;align=left;verticalAlign=middle;spacingTop=-1;spacingLeft=3;spacingRight=3;rotatable=0;labelPosition=right;points=[];portConstraint=eastwest;strokeColor=inherit;" parent="cp9rJf0xC1L9SVWynJWX-9" vertex="1">
          <mxGeometry y="26" width="200" height="8" as="geometry" />
        </mxCell>
        <mxCell id="cp9rJf0xC1L9SVWynJWX-12" value="+ DisplayMainMenu(): void" style="text;strokeColor=none;fillColor=none;align=left;verticalAlign=top;spacingLeft=4;spacingRight=4;overflow=hidden;rotatable=0;points=[[0,0.5],[1,0.5]];portConstraint=eastwest;whiteSpace=wrap;html=1;" parent="cp9rJf0xC1L9SVWynJWX-9" vertex="1">
          <mxGeometry y="34" width="200" height="26" as="geometry" />
        </mxCell>
        <mxCell id="PUqLCQDl67QB3bu-2gwk-9" value="+ DisplayGameMenu(): void" style="text;strokeColor=none;fillColor=none;align=left;verticalAlign=top;spacingLeft=4;spacingRight=4;overflow=hidden;rotatable=0;points=[[0,0.5],[1,0.5]];portConstraint=eastwest;whiteSpace=wrap;html=1;" parent="cp9rJf0xC1L9SVWynJWX-9" vertex="1">
          <mxGeometry y="60" width="200" height="26" as="geometry" />
        </mxCell>
        <mxCell id="cp9rJf0xC1L9SVWynJWX-16" value="+ DisplaySelectionMenu(): void" style="text;strokeColor=none;fillColor=none;align=left;verticalAlign=top;spacingLeft=4;spacingRight=4;overflow=hidden;rotatable=0;points=[[0,0.5],[1,0.5]];portConstraint=eastwest;whiteSpace=wrap;html=1;" parent="cp9rJf0xC1L9SVWynJWX-9" vertex="1">
          <mxGeometry y="86" width="200" height="26" as="geometry" />
        </mxCell>
        <mxCell id="cp9rJf0xC1L9SVWynJWX-18" value="CameraFollow" style="swimlane;fontStyle=1;align=center;verticalAlign=top;childLayout=stackLayout;horizontal=1;startSize=26;horizontalStack=0;resizeParent=1;resizeParentMax=0;resizeLast=0;collapsible=1;marginBottom=0;whiteSpace=wrap;html=1;" parent="1" vertex="1">
          <mxGeometry x="-1100" y="-963" width="200" height="144" as="geometry" />
        </mxCell>
        <mxCell id="cp9rJf0xC1L9SVWynJWX-19" value="- lapsRemaining: int&lt;div&gt;- offset : Vector3&lt;/div&gt;&lt;div&gt;- followSpeed : float&lt;/div&gt;&lt;div&gt;- rotationSpeed : float&lt;/div&gt;" style="text;strokeColor=none;fillColor=none;align=left;verticalAlign=top;spacingLeft=4;spacingRight=4;overflow=hidden;rotatable=0;points=[[0,0.5],[1,0.5]];portConstraint=eastwest;whiteSpace=wrap;html=1;" parent="cp9rJf0xC1L9SVWynJWX-18" vertex="1">
          <mxGeometry y="26" width="200" height="84" as="geometry" />
        </mxCell>
        <mxCell id="cp9rJf0xC1L9SVWynJWX-22" value="" style="line;strokeWidth=1;fillColor=none;align=left;verticalAlign=middle;spacingTop=-1;spacingLeft=3;spacingRight=3;rotatable=0;labelPosition=right;points=[];portConstraint=eastwest;strokeColor=inherit;" parent="cp9rJf0xC1L9SVWynJWX-18" vertex="1">
          <mxGeometry y="110" width="200" height="8" as="geometry" />
        </mxCell>
        <mxCell id="cp9rJf0xC1L9SVWynJWX-23" value="+ StartRace(): void" style="text;strokeColor=none;fillColor=none;align=left;verticalAlign=top;spacingLeft=4;spacingRight=4;overflow=hidden;rotatable=0;points=[[0,0.5],[1,0.5]];portConstraint=eastwest;whiteSpace=wrap;html=1;" parent="cp9rJf0xC1L9SVWynJWX-18" vertex="1">
          <mxGeometry y="118" width="200" height="26" as="geometry" />
        </mxCell>
        <mxCell id="_vIPs_J5UTxVljyEq_HG-16" style="edgeStyle=orthogonalEdgeStyle;rounded=0;orthogonalLoop=1;jettySize=auto;html=1;exitX=0.5;exitY=0;exitDx=0;exitDy=0;entryX=1;entryY=0.5;entryDx=0;entryDy=0;dashed=1;dashPattern=8 8;" edge="1" parent="1" source="cp9rJf0xC1L9SVWynJWX-44" target="cp9rJf0xC1L9SVWynJWX-55">
          <mxGeometry relative="1" as="geometry" />
        </mxCell>
        <mxCell id="cp9rJf0xC1L9SVWynJWX-44" value="RaceUIManager" style="swimlane;fontStyle=1;align=center;verticalAlign=top;childLayout=stackLayout;horizontal=1;startSize=26;horizontalStack=0;resizeParent=1;resizeParentMax=0;resizeLast=0;collapsible=1;marginBottom=0;whiteSpace=wrap;html=1;" parent="1" vertex="1">
          <mxGeometry x="-800" y="-1000" width="220" height="180" as="geometry" />
        </mxCell>
        <mxCell id="cp9rJf0xC1L9SVWynJWX-45" value="- timeText : TextMeshProUGUI&lt;div&gt;- lapCounterText : TextMeshProUGUI&lt;/div&gt;&lt;div&gt;- lapTimesText : TextMeshProUGUI&lt;/div&gt;&lt;div&gt;- needle : RectTransform&lt;/div&gt;&lt;div&gt;- maxSpeed : float&lt;/div&gt;&lt;div&gt;- currentLap : int&lt;/div&gt;" style="text;strokeColor=none;fillColor=none;align=left;verticalAlign=top;spacingLeft=4;spacingRight=4;overflow=hidden;rotatable=0;points=[[0,0.5],[1,0.5]];portConstraint=eastwest;whiteSpace=wrap;html=1;" parent="cp9rJf0xC1L9SVWynJWX-44" vertex="1">
          <mxGeometry y="26" width="220" height="94" as="geometry" />
        </mxCell>
        <mxCell id="cp9rJf0xC1L9SVWynJWX-46" value="" style="line;strokeWidth=1;fillColor=none;align=left;verticalAlign=middle;spacingTop=-1;spacingLeft=3;spacingRight=3;rotatable=0;labelPosition=right;points=[];portConstraint=eastwest;strokeColor=inherit;" parent="cp9rJf0xC1L9SVWynJWX-44" vertex="1">
          <mxGeometry y="120" width="220" height="18" as="geometry" />
        </mxCell>
        <mxCell id="cp9rJf0xC1L9SVWynJWX-47" value="+ UpdateLap(): void&lt;div&gt;+ UpdateLap() : void&lt;/div&gt;" style="text;strokeColor=none;fillColor=none;align=left;verticalAlign=top;spacingLeft=4;spacingRight=4;overflow=hidden;rotatable=0;points=[[0,0.5],[1,0.5]];portConstraint=eastwest;whiteSpace=wrap;html=1;" parent="cp9rJf0xC1L9SVWynJWX-44" vertex="1">
          <mxGeometry y="138" width="220" height="42" as="geometry" />
        </mxCell>
        <mxCell id="cp9rJf0xC1L9SVWynJWX-52" value="GameData" style="swimlane;fontStyle=1;align=center;verticalAlign=top;childLayout=stackLayout;horizontal=1;startSize=26;horizontalStack=0;resizeParent=1;resizeParentMax=0;resizeLast=0;collapsible=1;marginBottom=0;whiteSpace=wrap;html=1;" parent="1" vertex="1">
          <mxGeometry x="-780" y="-1240" width="160" height="60" as="geometry" />
        </mxCell>
        <mxCell id="cp9rJf0xC1L9SVWynJWX-54" value="" style="line;strokeWidth=1;fillColor=none;align=left;verticalAlign=middle;spacingTop=-1;spacingLeft=3;spacingRight=3;rotatable=0;labelPosition=right;points=[];portConstraint=eastwest;strokeColor=inherit;" parent="cp9rJf0xC1L9SVWynJWX-52" vertex="1">
          <mxGeometry y="26" width="160" height="8" as="geometry" />
        </mxCell>
        <mxCell id="cp9rJf0xC1L9SVWynJWX-55" value="&amp;nbsp;" style="text;strokeColor=none;fillColor=none;align=left;verticalAlign=top;spacingLeft=4;spacingRight=4;overflow=hidden;rotatable=0;points=[[0,0.5],[1,0.5]];portConstraint=eastwest;whiteSpace=wrap;html=1;" parent="cp9rJf0xC1L9SVWynJWX-52" vertex="1">
          <mxGeometry y="34" width="160" height="26" as="geometry" />
        </mxCell>
        <mxCell id="PUqLCQDl67QB3bu-2gwk-10" value="RaceSetup" style="swimlane;fontStyle=1;align=center;verticalAlign=top;childLayout=stackLayout;horizontal=1;startSize=26;horizontalStack=0;resizeParent=1;resizeParentMax=0;resizeLast=0;collapsible=1;marginBottom=0;whiteSpace=wrap;html=1;" parent="1" vertex="1">
          <mxGeometry x="-810" y="-1640" width="200" height="112" as="geometry" />
        </mxCell>
        <mxCell id="PUqLCQDl67QB3bu-2gwk-11" value="- mainCamera : Camera" style="text;strokeColor=none;fillColor=none;align=left;verticalAlign=top;spacingLeft=4;spacingRight=4;overflow=hidden;rotatable=0;points=[[0,0.5],[1,0.5]];portConstraint=eastwest;whiteSpace=wrap;html=1;" parent="PUqLCQDl67QB3bu-2gwk-10" vertex="1">
          <mxGeometry y="26" width="200" height="26" as="geometry" />
        </mxCell>
        <mxCell id="PUqLCQDl67QB3bu-2gwk-12" value="" style="line;strokeWidth=1;fillColor=none;align=left;verticalAlign=middle;spacingTop=-1;spacingLeft=3;spacingRight=3;rotatable=0;labelPosition=right;points=[];portConstraint=eastwest;strokeColor=inherit;" parent="PUqLCQDl67QB3bu-2gwk-10" vertex="1">
          <mxGeometry y="52" width="200" height="8" as="geometry" />
        </mxCell>
        <mxCell id="PUqLCQDl67QB3bu-2gwk-13" value="+ SetupRaceMode(): void" style="text;strokeColor=none;fillColor=none;align=left;verticalAlign=top;spacingLeft=4;spacingRight=4;overflow=hidden;rotatable=0;points=[[0,0.5],[1,0.5]];portConstraint=eastwest;whiteSpace=wrap;html=1;" parent="PUqLCQDl67QB3bu-2gwk-10" vertex="1">
          <mxGeometry y="60" width="200" height="26" as="geometry" />
        </mxCell>
        <mxCell id="PUqLCQDl67QB3bu-2gwk-14" value="+ SetupTimeTrialModel(): void" style="text;strokeColor=none;fillColor=none;align=left;verticalAlign=top;spacingLeft=4;spacingRight=4;overflow=hidden;rotatable=0;points=[[0,0.5],[1,0.5]];portConstraint=eastwest;whiteSpace=wrap;html=1;" parent="PUqLCQDl67QB3bu-2gwk-10" vertex="1">
          <mxGeometry y="86" width="200" height="26" as="geometry" />
        </mxCell>
        <mxCell id="jFVlbaEkTlmOw9In86_X-44" value="&lt;font style=&quot;font-size: 18px;&quot;&gt;&lt;b&gt;GameLogic&lt;/b&gt;&lt;/font&gt;" style="rounded=0;whiteSpace=wrap;html=1;" parent="1" vertex="1">
          <mxGeometry x="-1341" y="-1760" width="120" height="40" as="geometry" />
        </mxCell>
        <mxCell id="jFVlbaEkTlmOw9In86_X-45" value="&lt;font style=&quot;font-size: 18px;&quot;&gt;&lt;b&gt;PlayerLogic&lt;/b&gt;&lt;/font&gt;" style="rounded=0;whiteSpace=wrap;html=1;" parent="1" vertex="1">
          <mxGeometry x="-2120" y="-800" width="120" height="40" as="geometry" />
        </mxCell>
        <mxCell id="jFVlbaEkTlmOw9In86_X-46" value="&lt;font style=&quot;font-size: 18px;&quot;&gt;&lt;b&gt;ObstaclesLogic&lt;/b&gt;&lt;/font&gt;" style="rounded=0;whiteSpace=wrap;html=1;" parent="1" vertex="1">
          <mxGeometry x="1360" y="-800" width="180" height="40" as="geometry" />
        </mxCell>
        <mxCell id="_vIPs_J5UTxVljyEq_HG-1" value="RaceStartManager" style="swimlane;fontStyle=1;align=center;verticalAlign=top;childLayout=stackLayout;horizontal=1;startSize=26;horizontalStack=0;resizeParent=1;resizeParentMax=0;resizeLast=0;collapsible=1;marginBottom=0;whiteSpace=wrap;html=1;" vertex="1" parent="1">
          <mxGeometry x="-95" y="-1360" width="190" height="180" as="geometry" />
        </mxCell>
        <mxCell id="_vIPs_J5UTxVljyEq_HG-2" value="&lt;div&gt;&lt;span style=&quot;background-color: transparent; color: light-dark(rgb(0, 0, 0), rgb(255, 255, 255));&quot;&gt;- bool: raceStarted&lt;/span&gt;&lt;/div&gt;&lt;div&gt;&lt;span style=&quot;background-color: transparent; color: light-dark(rgb(0, 0, 0), rgb(255, 255, 255));&quot;&gt;- GameObject : redLight1&lt;/span&gt;&lt;/div&gt;&lt;div&gt;- GameObject : redLight2&lt;/div&gt;&lt;div&gt;- GameObject : redLight3&lt;/div&gt;" style="text;strokeColor=none;fillColor=none;align=left;verticalAlign=top;spacingLeft=4;spacingRight=4;overflow=hidden;rotatable=0;points=[[0,0.5],[1,0.5]];portConstraint=eastwest;whiteSpace=wrap;html=1;" vertex="1" parent="_vIPs_J5UTxVljyEq_HG-1">
          <mxGeometry y="26" width="190" height="74" as="geometry" />
        </mxCell>
        <mxCell id="_vIPs_J5UTxVljyEq_HG-3" value="" style="line;strokeWidth=1;fillColor=none;align=left;verticalAlign=middle;spacingTop=-1;spacingLeft=3;spacingRight=3;rotatable=0;labelPosition=right;points=[];portConstraint=eastwest;strokeColor=inherit;" vertex="1" parent="_vIPs_J5UTxVljyEq_HG-1">
          <mxGeometry y="100" width="190" height="8" as="geometry" />
        </mxCell>
        <mxCell id="_vIPs_J5UTxVljyEq_HG-4" value="+ Start(): void" style="text;strokeColor=none;fillColor=none;align=left;verticalAlign=top;spacingLeft=4;spacingRight=4;overflow=hidden;rotatable=0;points=[[0,0.5],[1,0.5]];portConstraint=eastwest;whiteSpace=wrap;html=1;" vertex="1" parent="_vIPs_J5UTxVljyEq_HG-1">
          <mxGeometry y="108" width="190" height="26" as="geometry" />
        </mxCell>
        <mxCell id="_vIPs_J5UTxVljyEq_HG-5" value="+&amp;nbsp;IEnumerator StartRaceSequence" style="text;strokeColor=none;fillColor=none;align=left;verticalAlign=top;spacingLeft=4;spacingRight=4;overflow=hidden;rotatable=0;points=[[0,0.5],[1,0.5]];portConstraint=eastwest;whiteSpace=wrap;html=1;" vertex="1" parent="_vIPs_J5UTxVljyEq_HG-1">
          <mxGeometry y="134" width="190" height="46" as="geometry" />
        </mxCell>
        <mxCell id="_vIPs_J5UTxVljyEq_HG-11" style="edgeStyle=orthogonalEdgeStyle;rounded=0;orthogonalLoop=1;jettySize=auto;html=1;entryX=0.02;entryY=0.876;entryDx=0;entryDy=0;entryPerimeter=0;dashed=1;dashPattern=12 12;" edge="1" parent="1" source="cp9rJf0xC1L9SVWynJWX-18" target="cp9rJf0xC1L9SVWynJWX-45">
          <mxGeometry relative="1" as="geometry" />
        </mxCell>
        <mxCell id="_vIPs_J5UTxVljyEq_HG-18" style="edgeStyle=orthogonalEdgeStyle;rounded=0;orthogonalLoop=1;jettySize=auto;html=1;entryX=0;entryY=0.25;entryDx=0;entryDy=0;dashed=1;dashPattern=8 8;" edge="1" parent="1" source="CuVekwpNMo5QbRq_H-KT-92" target="cp9rJf0xC1L9SVWynJWX-52">
          <mxGeometry relative="1" as="geometry" />
        </mxCell>
        <mxCell id="_vIPs_J5UTxVljyEq_HG-19" style="edgeStyle=orthogonalEdgeStyle;rounded=0;orthogonalLoop=1;jettySize=auto;html=1;entryX=0.25;entryY=0;entryDx=0;entryDy=0;dashed=1;dashPattern=8 8;" edge="1" parent="1" source="CuVekwpNMo5QbRq_H-KT-68" target="cp9rJf0xC1L9SVWynJWX-52">
          <mxGeometry relative="1" as="geometry">
            <Array as="points">
              <mxPoint x="-1070" y="-1470" />
              <mxPoint x="-740" y="-1470" />
            </Array>
          </mxGeometry>
        </mxCell>
        <mxCell id="_vIPs_J5UTxVljyEq_HG-20" style="edgeStyle=orthogonalEdgeStyle;rounded=0;orthogonalLoop=1;jettySize=auto;html=1;entryX=0.5;entryY=0;entryDx=0;entryDy=0;dashed=1;dashPattern=8 8;" edge="1" parent="1" source="PUqLCQDl67QB3bu-2gwk-14" target="cp9rJf0xC1L9SVWynJWX-52">
          <mxGeometry relative="1" as="geometry" />
        </mxCell>
        <mxCell id="_vIPs_J5UTxVljyEq_HG-21" style="edgeStyle=orthogonalEdgeStyle;rounded=0;orthogonalLoop=1;jettySize=auto;html=1;entryX=1;entryY=0;entryDx=0;entryDy=0;dashed=1;dashPattern=8 8;" edge="1" parent="1" source="CuVekwpNMo5QbRq_H-KT-53" target="cp9rJf0xC1L9SVWynJWX-52">
          <mxGeometry relative="1" as="geometry">
            <Array as="points">
              <mxPoint x="-305" y="-1370" />
              <mxPoint x="-620" y="-1370" />
            </Array>
          </mxGeometry>
        </mxCell>
      </root>
    </mxGraphModel>
  </diagram>
  <diagram id="aiD1hJAflf_3Q-vMeUIv" name="PÃ¡gina-2">
    <mxGraphModel grid="1" page="1" gridSize="10" guides="1" tooltips="1" connect="1" arrows="1" fold="1" pageScale="1" pageWidth="827" pageHeight="1169" math="0" shadow="0">
      <root>
        <mxCell id="0" />
        <mxCell id="1" parent="0" />
      </root>
    </mxGraphModel>
  </diagram>
</mxfile>
